<?xml version="1.0" encoding="UTF-8"?>
<svg viewBox="0 0 744.09447 1052.362179" xmlns="http://www.w3.org/2000/svg">
 <path d="m313.5 960.49c-0.42699-0.9625-0.89031-25.15-1.0296-53.75s-0.44846-56.275-0.68707-61.5-0.16094-13.476 0.1726-18.335 0.3827-9.0581 0.10924-9.3305c-0.37857-0.3772-1.2778-77.934-0.96045-82.834 0.13141-2.0292 0.16254-26.817 0.0697-55.5-0.0525-16.225 0.25959-29.62 0.69359-29.766s0.60603-1.8337 0.38231-3.75c-0.38147-3.2676-0.63348-3.4842-4.0532-3.4842-5.8171 0-5.9743 1.0554-5.7017 38.263 0.18003 24.57-0.061 33.013-0.96379 33.762-2.4526 2.0355-3.8838-1.8261-3.6584-9.8712 0.72249-25.796 0.42077-39.046-0.84603-37.154-0.55254 0.825-0.95566 3.525-0.89583 6s0.0155 4.95-0.0985 5.5-0.1121 1.45 4e-3 2c0.51814 2.4498-0.0216 29.767-0.60687 30.714-1.7653 2.8563-2.853-3.9182-2.6329-16.398 0.40346-22.868 0.30974-34.987-0.34489-44.595-0.59787-8.7748-0.74372-9.2436-2.6843-8.6276-1.9745 0.62668-3.0701 1.369-6.2404 4.228-1.2639 1.1398-1.4653 0.75138-1.4653-2.8269 0-3.1992 0.6292-4.7709 2.75-6.8692 2.3915-2.3662 3.0512-2.5683 5.0608-1.5506 4.324 2.1898 7.1072 5.2549 6.6985 7.3768-0.61009 3.168 0.83227 2.4265 2.9579-1.5205 1.0571-1.9629 2.7894-4.0332 3.8496-4.6006 2.7306-1.4614 7.8809-0.18937 9.876 2.4392l1.6928 2.2302 2.0961-2.2499c1.1531-1.2375 3.2038-2.2499 4.5574-2.2499s2.461-0.45 2.461-1 1.35-1 3-1 3 0.45 3 1 0.6383 1 1.4184 1 2.3918 1.575 3.5816 3.5 2.4639 3.4931 2.8316 3.4847c1.1534-0.0264 3.7205-1.9516 2.6684-2.0012-0.55-0.0259-0.12649-0.70781 0.94113-1.5153s1.6301-1.4682 1.25-1.4682 0.32137-1.0125 1.5589-2.25c1.9431-1.9431 3.2986-2.25 9.938-2.25 7.4886 0 7.7671 0.0886 10.738 3.4162 2.9848 3.3436 3.0926 3.3772 5.0766 1.5818 1.1148-1.0089 2.8079-1.9212 3.7624-2.0274s2.5114-0.52415 3.4597-0.92893c1.6369-0.69865 5.2757 1.7523 5.2757 3.5535 0 1.8766 1.4477 1.871 2.4542-0.01 2.0349-3.8022 3.9184-2.5672 3.3008 2.1644-0.30511 2.3375-0.99584 4.5378-1.535 4.8894-0.59826 0.39026-0.67807 2.5335-0.20482 5.5 0.42647 2.6733 0.93375 22.411 1.1273 43.861s0.54578 47.55 0.78277 58c0.53493 23.588 0.5513 27.857 0.10849 28.3-0.193 0.193 0.0407 1.7163 0.51927 3.3851 1.3588 4.7378-0.62599 17.769-3.0504 20.028-1.1014 1.0261-1.9741 2.6356-1.9392 3.5767 0.0457 1.2328 0.32281 1.0642 0.99154-0.6032 2.6031-6.4905 3.7049 1.5784 4.4124 32.314 0.26587 11.55 0.73053 30.675 1.0326 42.5s0.67654 31.175 0.83218 43 0.64202 23.783 1.0808 26.573c0.65161 4.1433 0.49051 5.3805-0.87895 6.75-2.1488 2.1488-6.9114 2.1565-9.0533 0.0146-1.2886-1.2886-1.8375-1.3784-2.4424-0.39981-0.86381 1.3977-11.464 1.9695-12.746 0.68756-0.42976-0.42976-0.75411-2.8838-0.72078-5.4535s0.16211-11.872 0.28618-20.672-0.16092-17.575-0.63331-19.5-0.53392-7.1-0.13675-11.5 0.35674-12.275-0.0898-17.5-0.86298-25.25-0.92535-44.5c-0.12762-39.389-0.66845-61.037-1.5609-62.481-0.33161-0.53656-0.79258-5.8227-1.0244-11.747s-0.72243-14.629-1.0903-19.344c-0.47276-6.0596-0.27984-9.7241 0.65803-12.5 1.6059-4.753 2.1597-42.56 0.63826-43.572-1.0841-0.72066-1.078-0.22662-0.28191-22.543l0.57743-16.187-3.1673-0.31294c-3.8451-0.37946-5.1321-2.8125-1.488-2.8125 1.375 0 2.7282 0.5625 3.0072 1.25 0.38169 0.94068 0.76971 0.87881 1.568-0.25 1.6175-2.2872 1.3005-4.791-0.88312-6.9746-2.806-2.806-6.5928-3.4883-11.101-2.0004-4.757 1.57-7.042 4.8079-6.88 9.7494 0.0672 2.0491-0.12302 5.3006-0.42263 7.2256-0.29962 1.925-0.55212 12.275-0.56113 23s-0.11157 22.425-0.22792 26-0.12582 8.3-0.0211 10.5c0.33414 7.0159 1.0025 45.883 0.84264 49-0.37572 7.3241 0.51091 98.958 0.9646 99.692 0.27839 0.45045 0.4605 6.3291 0.40467 13.064s-0.0103 15.395 0.10117 19.245 0.10499 8.0125-0.0144 9.25c-0.43884 4.5485-0.54073 12.956-0.25148 20.75 0.16329 4.4 0.0824 12.895-0.17966 18.878-0.51821 11.829-1.0176 12.83-6.1788 12.382l-3-0.26052-0.16368-16.654c-0.1-10.173-0.60445-17.478-1.2962-18.771-0.62291-1.1639-0.8467-2.5788-0.4973-3.1441s0.80226-6.0281 1.0064-12.139 0.83905-11.58 1.411-12.151c1.4968-1.4968 1.2795-4.1961-0.45358-5.6344-1.263-1.0482-1.4342-4.5784-1.1095-22.872 0.21116-11.898 0.43321-21.745 0.49346-21.883 0.48454-1.1059 3.1095 0.11811 3.1095 1.45 0 2.1445 1.5274 0.62024 2.455-2.45 0.49185-1.628 0.2695-2.25-0.80427-2.25-0.81623 0-1.661 0.53096-1.8774 1.1799s-1.0938 0.91109-1.9501 0.58252c-1.9233-0.73805-2.8674-13.497-1.8322-24.762 0.70374-7.658 0.63342-12.64-0.50102-35.5-0.35482-7.15-0.59751-15.7-0.53931-19s0.25257-18.825 0.43192-34.5 0.40466-29.175 0.50066-30-0.31217-4.1989-0.90707-7.4976c-0.77942-4.3218-0.77414-8.3731 0.0189-14.5 1.2524-9.6759 1.2418-9.2534 0.55144-22.002-0.68995-12.741-2.0462-14.942-9.2376-14.986-3.716-0.0231-4.431 2.5721-4.2666 15.486 0.063 4.95 0.0592 9.675-8e-3 10.5s-0.10536 12.075-0.0837 25 0.0444 27.775 0.0505 33c6e-3 5.225-0.27637 11.649-0.62771 14.275-0.54526 4.076-0.91217 4.6884-2.5059 4.1826-1.3113-0.41618-1.8671-0.0981-1.8671 1.0684 0 0.91356 0.9 1.8964 2 2.184s2.0145 0.80803 2.0323 1.1564c1.0054 19.741 2.0404 68.989 1.8521 88.133-0.0568 5.775-0.0264 10.95 0.0675 11.5s0.3811 23.891 0.6382 51.869c0.27469 29.894 0.86645 51.615 1.4351 52.678 1.8611 3.4775-2.0386 8.953-6.3764 8.953-1.3565 0-2.7787-0.77506-3.2112-1.75zm65.062-5.25c0.73333 0 1.5603 0.5625 1.8377 1.25s0.57335 0.125 0.65764-1.25c0.18673-3.046 0.77785-6.6641 1.6338-10 0.76684-2.9887 0.46356-11.091-0.46787-12.5-0.3637-0.55-0.58982-4.15-0.50248-8 0.28067-12.372 0.1322-52.82-0.21474-58.5-0.99511-16.292-1.1562-30.91-0.37489-34.02 1.6135-6.4234 1.8628-11.03 0.74527-13.771-0.87308-2.1409-2.2093-28.903-1.9328-38.709 0.031-1.1 0.083-3.4888 0.11562-5.3084 0.0506-2.8265 0.34641-3.2173 2.031-2.6826 1.1217 0.35601 1.9717 0.16563 1.9717-0.44158 0-0.58707-1.125-1.0674-2.5-1.0674s-2.5196-0.3375-2.5436-0.75c-0.097-1.6699-0.022-16.888 0.0924-18.75 0.0676-1.1 0.0928-2.9 0.056-4s-0.0585-4.025-0.0483-6.5-0.057-9.5105-0.14947-15.634 0.0109-11.524 0.22955-12 0.26529-3.5656 0.10357-6.8656-0.42496-14.348-0.58497-24.551-0.5469-18.978-0.85977-19.5-0.22932-4.7444 0.18566-9.383c0.6696-7.4845 0.54418-8.6594-1.1144-10.44-1.8466-1.982-1.8866-1.9828-3.3487-0.0663-1.118 1.4654-1.3226 3.4067-0.83686 7.9397 0.3536 3.3 0.54091 6.675 0.41624 7.5s-0.18307 7.8-0.12978 15.5 0.2713 40.325 0.48445 72.5 0.45153 63 0.52971 68.5c0.2909 20.465 0.0305 27.626-0.98188 27-0.55-0.33992-1-1.7165-1-3.059 0-2.7574-1.9456-3.3977-2.0995-0.69098-0.0547 0.9625-0.27109 3.6413-0.48084 5.9528-0.44815 4.9389 1.3241 6.8282 2.2171 2.3635 0.63392-3.1696 1.8183-3.9993 2.5927-1.8163 0.24388 0.6875 0.55745 17.9 0.69682 38.25 0.36282 52.977 0.9157 76.783 1.736 74.75 0.27741-0.6875 1.1044-1.25 1.8377-1.25zm-38.317-26.25c-0.49206-2.0685-2.183-2.359-2.183-0.375 0 0.75625 0.31849 2.8938 0.70775 4.75l0.70774 3.375 0.59193-3c0.32555-1.65 0.40458-3.7875 0.17562-4.75zm-23.281 4.5c0.0145-0.9625 0.32467-4.1125 0.68938-7 0.42799-3.3885 0.29492-5.25-0.3753-5.25-0.97071 0-2.248 11.606-1.4582 13.25 0.61185 1.2739 1.1167 0.83265 1.1442-1zm55.068-4.5c-0.0242-2.5852-0.22908-2.9096-1.0016-1.5859-0.53416 0.91523-0.69733 2.3777-0.36261 3.25 0.94078 2.4516 1.3975 1.8945 1.3642-1.6641zm-55.28-15.5c-0.25153-0.9625-0.45733-0.175-0.45733 1.75s0.2058 2.7125 0.45733 1.75 0.25152-2.5375 0-3.5zm55.66 3.282c0.60135-1.5671-0.6431-2.9049-1.7099-1.8382-0.95301 0.95302-0.77257 3.3062 0.25353 3.3062 0.49116 0 1.1465-0.66059 1.4563-1.468zm-0.74517-12.261c-0.33229-0.33229-0.56864 0.25834-0.52522 1.3125 0.048 1.165 0.28494 1.4019 0.60416 0.60417 0.28887-0.72187 0.25335-1.5844-0.0789-1.9167zm0.39583-29.271c0-3.2351-0.45-6.1601-1-6.5-0.63089-0.38991-1 2.0093-1 6.5s0.36911 6.8899 1 6.5c0.55-0.33992 1-3.2649 1-6.5zm-55.07-1.75c-0.0535-2.8564-0.25493-3.2772-0.84517-1.766-0.71447 1.8293-0.35884 5.516 0.53209 5.516 0.21085 0 0.35174-1.6875 0.31308-3.75zm23.07-13.691c0-6.1962-1.7317-6.6447-2.1535-0.55779-0.2438 3.5184 0.0239 4.9998 0.90353 4.9994 0.81226-4e-4 1.25-1.5558 1.25-4.4416zm31.985-2.809c0.0276-3.1528-1.4791-1.8274-1.7074 1.502-0.16412 2.3938 0.0291 2.8535 0.73469 1.748 0.52656-0.825 0.96427-2.2875 0.97269-3.25zm-54.985-6.809c0-0.58246-0.45-0.7809-1-0.44098s-1 0.81648-1 1.059 0.45 0.44098 1 0.44098 1-0.47656 1-1.059zm-1.3377-17.191c-0.27741-0.6875-0.50439-0.125-0.50439 1.25s0.22698 1.9375 0.50439 1.25 0.27741-1.8125 0-2.5zm0.73073-15.332c0.80555-2.0992 0.76909-2.4182-0.27638-2.4182-0.48585 0-1.1187 0.9-1.4064 2-0.61756 2.3616 0.80167 2.7143 1.6828 0.41821zm0.60699-6.4182c0-0.55-0.45-1-1-1s-1 0.45-1 1 0.45 1 1 1 1-0.45 1-1zm22-1.2c0-1.6154-0.29571-1.9043-1.1129-1.0871-0.61207 0.61207-0.81052 1.6021-0.44098 2.2 1.0344 1.6737 1.5538 1.3016 1.5538-1.1129zm-22-12.359c0-1.3425-0.45715-2.441-1.0159-2.441s-0.91539 1.3189-0.79257 2.9308c0.26415 3.4666 1.8084 3.0483 1.8084-0.48983zm53.181-8.0823c-1.582-2.8269-2.4683 1.8226-1.0026 5.2593l1.2292 2.8821 0.35801-3.2284c0.19691-1.7756-0.0662-3.9864-0.58464-4.9129zm14.819-6.2996c0-0.51754-0.45-1.2191-1-1.559s-1 0.0835-1 0.94098 0.45 1.559 1 1.559 1-0.42344 1-0.94098zm-15.922-16.381c-0.77091-0.77091-1.0782-0.2137-1.0782 1.9552 0 3.9476 1.4032 5.3604 1.8282 1.8408 0.1805-1.4948-0.157-3.2029-0.75-3.7959zm-30.078 0.82182c0-0.825-0.375-1.5-0.83333-1.5s-0.83334 0.675-0.83334 1.5 0.375 1.5 0.83334 1.5 0.83333-0.675 0.83333-1.5zm29.656-8.769c-0.27393-0.67703-0.48137 0.11903-0.46099 1.769s0.2445 2.2039 0.49804 1.231 0.23687-2.323-0.0371-3zm-51.671-3.481c8e-3 -0.6875-0.43469-1.25-0.98469-1.25s-0.99311 1.2375-0.98469 2.75c0.0119 2.1429 0.22931 2.4189 0.98469 1.25 0.53316-0.825 0.97627-2.0625 0.98469-2.75zm22.015-7.309c0-0.51754-0.45-0.94098-1-0.94098s-1 0.70156-1 1.559 0.45 1.2809 1 0.94098 1-1.0415 1-1.559zm-0.0703-6.691c-0.0614-2.4008-0.17246-2.496-0.87486-0.75-0.44252 1.1-0.60934 2.3375-0.3707 2.75 0.84706 1.4642 1.3149 0.713 1.2456-2zm30.134-10.586c-0.75218-0.75219-1.0641 0.26482-1.0641 3.4692 0 5.8949 1.4068 7.3098 1.8141 1.8246 0.17277-2.3263-0.16473-4.7085-0.75-5.2938zm-30.064 0.33586c0-0.55-0.45-1-1-1s-1 0.45-1 1 0.45 1 1 1 1-0.45 1-1zm-0.39583-4.7292c-0.33229-0.33229-0.56864 0.25834-0.52522 1.3125 0.048 1.165 0.28494 1.4019 0.60416 0.60417 0.28887-0.72187 0.25335-1.5844-0.0789-1.9167zm31.637-8.6891c-0.3446-0.55758-0.93816-2.6041-1.319-4.5477-0.64619-3.2978-0.70016-3.1942-0.80747 1.5494-0.0632 2.7958 0.19176 5.3901 0.56669 5.765 0.94376 0.94375 2.3316-1.5179 1.5598-2.7666zm-31.753-43.203c-0.21807-5.8415-0.64212-10.866-0.94234-11.167-0.59509-0.59509-0.59563-0.58852-0.96788 11.787-0.26349 8.7604-0.0871 10 1.4234 10 0.48582 0 0.70489-4.7794 0.48682-10.621zm29.535 4.2555c-0.86005-0.85125-1.0266-0.38534-0.66689 1.8653 0.66081 4.1344 0.84826 4.3589 1.3648 1.6347 0.24666-1.3009-0.0674-2.8759-0.69791-3.5zm-52.361-10.885c-0.27741-0.6875-0.50439-0.125-0.50439 1.25s0.22698 1.9375 0.50439 1.25 0.27741-1.8125 0-2.5zm-17.748-11c-0.071-5.9892-0.24537-6.7283-1.0026-4.25-0.81766 2.6761-0.27895 11.5 0.70208 11.5 0.21255 0 0.34778-3.2625 0.30051-7.25zm40.19 0.95362c-0.80483-0.80483-1.0954-0.30495-1.0732 1.8464 0.0267 2.5861 0.16279 2.7222 1.1036 1.1036 0.76916-1.3233 0.76054-2.159-0.0304-2.95zm29.501-1.4328c-0.33229-0.33229-0.56864 0.25834-0.52522 1.3125 0.048 1.165 0.28494 1.4019 0.60416 0.60417 0.28887-0.72187 0.25335-1.5844-0.0789-1.9167zm-51.45-3.3847-0.97368-3.3861-0.0902 4.45c-0.0637 3.1448 0.22185 4.138 0.97368 3.3861 0.72424-0.72424 0.75303-2.1448 0.0902-4.45zm52.846-1.8271c0-1.0675-0.45-2.2191-1-2.559-0.56716-0.35052-1 0.48962-1 1.941 0 1.4075 0.45 2.559 1 2.559s1-0.87344 1-1.941zm-105.65 308.12c-0.78472-1.2565-0.93585-5.8119-0.49055-14.786 0.35396-7.1338 0.40594-14.754 0.11552-16.934s-0.24149-8.0136 0.10873-12.964 0.37595-9.45 0.0572-10-0.68656-11.8-0.81726-25-0.28901-24.225-0.35179-24.5c-0.0628-0.275-0.10117-6.125-0.0853-13 0.16273-70.431-0.32436-115.29-1.2685-116.81-0.34613-0.56004-0.23813-2.0685 0.23999-3.3522 1.2257-3.2907 0.89382-72.922-0.35725-74.958-0.81847-1.3323-3.4571-1.7052-14.685-2.0753-8.378-0.27613-14.237-0.90757-15.105-1.6279-0.77988-0.64725-3.5265-2.2979-6.1036-3.6682-6.3123-3.3563-14.683-11.95-16.631-17.075-0.54855-1.4428-1.796-2.8321-2.7721-3.0874-2.4067-0.62937-4.4683-9.7904-4.2944-19.083 0.14971-7.9987 1.2424-11.818 4.1583-14.535 1.0642-0.99145 1.9349-2.822 1.9349-4.0679s1.4029-4.4909 3.1175-7.211c3.634-5.7652 15.058-17.446 17.062-17.446 0.7566 0 2.2633-0.61859 3.3481-1.3747s3.9975-1.6782 6.4725-2.0491c7.502-1.1244 13-2.9406 13-4.2946-4e-5 -0.70492-0.67504-1.2817-1.5-1.2817s-1.5-0.41425-1.5-0.92054-1.35-1.2171-3-1.5795-3-1.0732-3-1.5795-0.56396-0.92054-1.2532-0.92054c-1.2684 0-6.7468-5.263-6.7468-6.4816 0-0.36368 0.64286-1.3041 1.4286-2.0898 1.0672-1.0672 4.2476-1.4286 12.571-1.4286 14.226 0 14.209 0.0147 14.266-12.385 0.0237-5.1177-0.27815-9.8246-0.6707-10.46s-1.7424-1.1548-2.9997-1.1548c-4.6705 0-5.6067-2.6261-5.3403-14.981l0.24436-11.336-3.2059-1.0914c-1.7633-0.60026-3.7284-1.6165-4.3669-2.2583-1.4033-1.4105-3.0839-23.38-2.4469-31.986 0.41866-5.6559 0.2157-6.4546-2.5124-9.8875-1.6323-2.054-2.9679-4.4885-2.9679-5.41s-1.3869-2.9971-3.0819-4.6125c-3.1484-3.0005-5.5239-7.5352-6.0972-11.639-0.21212-1.5186-1.1686-2.4705-2.8209-2.8074-1.9956-0.40696-2.5-1.1131-2.5-3.5 0-3.7216 2.6077-4.0762 3.6052-0.49018 0.61355 2.2057 0.70713 2.2497 0.79508 0.37383 0.0856-1.8265 0.83996-2.1876 5.3513-2.5617 2.8884-0.23952 9.3009-0.18275 14.25 0.12617s10.19 0.42371 11.647 0.25508c3.184-0.36863 4.142-3.0625 2.6308-7.3976-0.72249-2.0725-0.80112-7.8092-0.24234-17.682 1.0612-18.75 1.0618-19.032 0.0717-35.614-0.45973-7.7-0.9304-25.025-1.0459-38.5-0.23647-27.581-0.5349-29-6.0976-29-2.0631 0-3.4968-0.5057-3.5438-1.25-0.0632-1-0.17982-1-0.58333 0-0.27741 0.6875-1.3366 1.25-2.3537 1.25-2.2986 0-3.742-3.9135-1.87-5.0705 1.018-0.62918 0.63449-1.5273-1.643-3.8474-1.6341-1.6646-3.666-3.0391-4.5153-3.0544s-3.4447-1.8-5.7676-3.966-5.1391-4.2288-6.2585-4.5841c-1.5804-0.50161-1.9675-1.3533-1.7324-3.8118 0.298-3.1167 0.22886-3.1706-4.4473-3.4707-2.6125-0.16764-4.75-0.67765-4.75-1.1334s-0.89849-1.0635-1.9966-1.3507c-1.9015-0.49725-1.966-1.0914-1.3543-12.468 0.71702-13.335 0.21725-16.833-2.5294-17.705-1.1624-0.36893-2.3546-2.3056-3.1348-5.0924-0.6925-2.4734-1.6474-4.737-2.1219-5.0303s-0.8628-1.4388-0.8628-2.5457c0-2.5739-2.2898-4.8696-4.8571-4.8696-1.1 0-2.675-0.675-3.5-1.5s-1.9133-1.5-2.4184-1.5c-0.9138 0-4.2308-2.491-7.3708-5.5353-1.7704-1.7165-3.3964-9.7774-2.3227-11.515 0.35896-0.58081-0.27878-1.8638-1.4172-2.8512-1.8088-1.5688-4.8439-1.8654-24.069-2.3523-16.89-0.42779-22.294-0.87837-23.272-1.9404-3.4839-3.7851-4.1224-6.538-4.4273-19.089-0.17079-7.0305-0.82473-13.78-1.4532-15-1.4437-2.8014-4.9811-6.7173-6.0681-6.7173-0.85072 0-5.8363-4.9498-11.593-11.51-1.7976-2.0485-4.7226-4.4761-6.5-5.3947-4.065-2.101-8.8312-5.1868-10.553-6.8324-0.72679-0.69463-1.6527-1.263-2.0576-1.263s-1.5303-1.8-2.5009-4-2.4116-4-3.2022-4-2.208-0.9-3.1499-2-2.3472-2-3.1229-2-2.228-0.94259-3.2271-2.0946c-1.3862-1.5983-1.5648-2.498-0.75351-3.797 1.749-2.8006 6.6621-5.0705 12.446-5.7503 2.9949-0.352 5.6843-1.0266 5.9762-1.499s2.8668-0.86567 5.7219-0.87379 7.891-0.63429 11.191-1.3915 8.917-1.4016 12.482-1.432c3.6017-0.03073 6.6383-0.52333 6.8333-1.1085 0.19873-0.5962 3.2439-1.0563 7.0177-1.0603 9.7618-0.01041 20.189-1.1474 19.579-2.1348-0.47521-0.7689 18.43-1.5238 29.338-1.1715 2.3375 0.0755 4.25-0.222 4.25-0.66109s2.1375-1.1166 4.75-1.5055 5.3125-1.1701 6-1.736c0.86865-0.71498 1.25-0.68643 1.25 0.09359 0 0.61734 1.575 1.1224 3.5 1.1224s3.5-0.45 3.5-1 1.8266-1 4.059-1c2.4514 0 3.8142 0.39607 3.441 1-0.33992 0.55 0.30852 1 1.441 1s2.059-0.39632 2.059-0.88072c0-1.7454 22.699-2.6968 37.3-1.5633 4.7565 0.36926 8.2799 0.20748 9.0294-0.41459 0.67605-0.56107 5.5542-1.1599 10.84-1.3308 7.9604-0.25728 9.9366-0.01671 11.507 1.4007 1.732 1.5637 7.1382 1.7538 62.667 2.2036 35.672 0.28895 61.765 0.1142 63.179-0.42311 1.4991-0.56996 2.6319-0.55244 3.002 0.04643 0.79077 1.2795 5.1906 1.2331 5.9918-0.06316 0.4157-0.67261 7.569-0.85099 20.809-0.5189 38.746 0.97184 63.489 0.62326 67.058-0.94469 1.1721-0.51497 2.6626-0.3399 3.9497 0.46393 2.6512 1.6557 34.636 1.6947 35.656 0.04351 0.46545-0.75311 1.4435-0.67624 3.2374 0.25442 2.6306 1.3648 8.0143 1.4218 17.805 0.18876 6.0393-0.76064 7.2734-0.08445 8.4576 4.6338 0.52472 2.0906 0.12937 2.9249-2.0685 4.365-2.795 1.8314-4.0912 1.7608-20.051-1.0922-1.7951-0.32089-3.4209-0.09221-3.809 0.53577-0.84723 1.3709-9.5591 1.458-9.5591 0.09562 0-0.55-0.675-1-1.5-1s-1.5 0.45-1.5 1c0 1.3907-7.3415 1.2585-8.7576-0.15762-0.86574-0.86574-1.503-0.87099-2.5274-0.02084-0.9347 0.77573-8.8089 1.1462-24.792 1.1663-12.882 0.01625-33.548 0.07163-45.923 0.12307s-31.05 0.05811-41.5 0.01483-21.475-0.06622-24.5-0.05098c-20.286 0.1022-53.164 0.14462-81 0.1045-17.875-0.02576-33.4-0.01945-34.5 0.01402s-13.452-0.20219-27.449-0.5237-25.922-0.21276-26.5 0.24167-6.6252 1.0707-13.438 1.3695c-6.8617 0.30095-12.672 1.0058-13.027 1.5802-0.66864 1.0819-6.2021 1.3521-24.46 1.1944-7.103-0.06135-11.375 0.32128-12.317 1.1033-1.2021 0.99765-0.88968 1.3867 1.8743 2.3339 1.8243 0.62516 3.7668 0.82836 4.3168 0.45155s9.55-0.53787 20-0.3579c59.293 1.0212 139.52 1.1944 140.07 0.30256 0.38922-0.62979 1.1016-0.57721 1.9725 0.14557 0.97395 0.80831 9.7222 1.0026 30.636 0.68033 20.425-0.31473 29.809-0.11595 31.048 0.65772 1.2809 0.79994 2.2629 0.80653 3.5254 0.02364 2.3634-1.4655 17.25-1.8635 17.25-0.46125 0 1.2799 5.6504 1.44 6.4278 0.18217 1.6594-2.6849 15.966-2.0616 21.763 0.94819 1.071 0.55606 2.6114 0.4002 4.2023-0.42519 1.945-1.0091 10.263-1.2566 36.875-1.0973 18.9 0.11317 35.299 0.50265 36.442 0.86552 1.2914 0.40988 2.6597 0.07879 3.6127-0.87418 1.6861-1.6861 4.6768-2.0737 4.6768-0.60605 0 1.1887 19.966 1.3392 21.413 0.1614 0.63364-0.51603 3.5905-0.47428 7.0872 0.10006 3.3 0.54203 8.925 0.68252 12.5 0.31222 3.575-0.37031 12.8-0.63299 20.5-0.58374s15.217-0.16839 16.705-0.48365c2.94-0.62305 4.2981-3.2748 3.2953-6.4342-0.58323-1.8376-1.513-2-11.451-2-10.148 0-10.85-0.12979-11.365-2.1006-1.1192-4.2798 1.1092-6.6431 6.9524-7.3731 5.7759-0.72165 11.364 0.04211 11.364 1.5532 0 1.1549 5.7134 1.2246 6.1667 0.07525 0.607-1.5393 5.8406-2.3084 6.3236-0.92927 0.2455 0.70101 0.6244 7.5746 0.84202 15.275s0.90888 20.075 1.5362 27.5c2.3841 28.22 3.1212 41.292 3.7496 66.5 0.72417 29.049 0.73483 29.291 2.1744 49.5 0.56813 7.975 1.0178 15.85 0.99933 17.5-0.13087 11.674 1.2536 74.362 1.7679 80.048 0.45206 4.9982 0.1979 8.5287-0.87376 12.137-1.1015 3.7092-1.2122 5.3879-0.40832 6.1918 1.6213 1.6213 2.0683 16.611 1.8375 61.622-0.0818 15.95 0.28047 34.625 0.80503 41.5s0.73451 13.408 0.46657 14.518-0.0781 4.6267 0.42184 7.8148 0.55319 7.7012 0.1183 10.029c-0.9869 5.2826-1.1933 27.712-0.38322 41.638 0.53711 9.2329 0.37669 10.922-1.3293 14-1.8254 3.2929-2.3476 3.5515-8.8272 4.3703-3.7879 0.47868-19.242 1.0007-34.342 1.1601-25.579 0.26995-27.505 0.41549-28.18 2.1297-0.59069 1.5004-0.73731 1.5407-0.79462 0.21824-0.089-2.0524-12.958-2.7836-54.897-3.1194-26.633-0.21323-29.414-0.0797-30.272 1.4538-1.8671 3.3363-4.0995 4.7873-7.3653 4.7873-3.2902 0-4.9751 1.6964-3.693 3.7182 0.36161 0.57026 2.57 1.3565 4.9075 1.7472s4.25 1.1208 4.25 1.6225 0.57499 0.9121 1.2778 0.9121 2.0484 0.9 2.9902 2 2.8419 2 4.2222 2 2.5098 0.44143 2.5098 0.98095 1.0125 1.2441 2.25 1.5658c2.6408 0.68644 4.1931 2.658 9.0175 11.453 7.0678 12.885 7.7516 15.658 8.1002 32.851l0.3173 15.649-2.8268 4.1574c-1.5548 2.2866-4.0714 5.4627-5.5925 7.058s-3.5488 3.887-4.5059 5.0926-2.6446 2.192-3.75 2.192-2.0098 0.40122-2.0098 0.89159-1.0752 1.1615-2.3894 1.4913c-1.4018 0.35184-2.6362 1.5829-2.9865 2.9786-0.56219 2.24-1.1674 2.4182-10.361 3.0517-5.3699 0.37003-12.994 0.39856-16.942 0.0634l-7.1788-0.60939-0.62209 4.3164c-0.88849 6.1648-0.92464 15.847-0.10014 26.816 0.39271 5.225 0.67582 15.656 0.62913 23.179s0.36266 17.649 0.90966 22.5 0.94583 17.371 0.88628 27.821c-0.15862 27.834-0.16683 27.243 0.51419 37 0.34552 4.95 0.8368 20.7 1.0917 35s0.73613 29.825 1.0693 34.5c0.33318 4.675 0.59627 8.95 0.58466 9.5-0.27831 13.177-0.21788 17.509 0.25488 18.274 0.31534 0.51023 0.81826 4.7457 1.1176 9.4121 0.48911 7.6244 0.34044 8.6689-1.4667 10.304-2.3608 2.1365-2.6398 4.5099-0.53003 4.5099 0.81452 0 1.7623 1.1212 2.1063 2.4915 0.72006 2.869-0.0155 16.99-1.0475 20.109-0.4477 1.3533-0.13312 2.6628 0.88403 3.68 1.2121 1.2121 1.5463 3.5125 1.4382 9.8991-0.19281 11.385-0.94268 13.146-5.378 12.628-2.3995-0.28012-3.4839-2e-3 -3.4839 0.89248 0 2.0291-10.604 1.773-11.39-0.2751-0.54966-1.4324-0.74601-1.4324-2.1784 0-1.9527 1.9527-1.9836 1.9519-5.531-0.14357-2.6445-1.5621-2.8929-2.1741-2.7404-6.75 0.0923-2.7677-0.24351-7.9571-0.74617-11.532s-0.68893-11.812-0.41393-18.304 0.14606-12.156-0.28653-12.587c-0.96512-0.95978-1.3706-14.408-0.56765-18.828 0.32157-1.7706 0.18753-8.7456-0.29788-15.5-1.5038-20.925-1.8603-37.655-0.81608-38.3 0.61095-0.37759 0.52312-1.4171-0.23581-2.791-0.70304-1.2727-1.2826-6.7946-1.3843-13.189-0.0962-6.05-0.48776-19.325-0.87005-29.5-0.46965-12.5-0.34357-19.419 0.38876-21.334 0.8464-2.213 0.74557-3.5467-0.46023-6.0877-1.1089-2.3369-1.28-3.9486-0.60692-5.7188 0.59343-1.5608 0.57801-3.1066-0.0421-4.2146-0.67473-1.2057-0.59664-2.2107 0.25113-3.2322 0.96985-1.1686 0.97373-2.629 0.0183-6.8983-1.2862-5.7472-1.7775-38.594-0.60562-40.49 0.37792-0.61148 0.14527-1.7647-0.51699-2.5626s-0.98377-2.2935-0.71444-3.3234 0.0837-4.2948-0.41255-7.2553c-0.85548-5.104-0.94626-14.028-0.34972-34.383 0.14507-4.95 0.0635-9.7875-0.18119-10.75-0.59016-2.3211-3.0206-2.2378-3.7718 0.12926-0.89464 2.8188-0.98053 57.24-0.14854 94.121 0.40323 17.875 0.92579 42.175 1.1612 54s0.66537 24.65 0.95541 28.5c0.61674 8.1868 1.9936 74.315 1.9936 95.75 0 8.1125 0.225 14.75 0.5 14.75s0.55072 3.0375 0.6127 6.75 0.19149 9.1103 0.28779 11.995c0.23965 7.1794-1.0106 9.2405-5.3958 8.8952-1.9091-0.15035-3.7487-0.55094-4.0879-0.8902s-0.63224-10.108-0.65107-21.707-0.36008-21.292-0.75832-21.538-0.77218-17.448-0.831-38.226-0.486-40.029-0.94931-42.779-0.71916-7.475-0.56856-10.5 0.23099-10.675 0.17866-17c-0.0523-6.325-0.14962-20.95-0.21618-32.5s-0.38924-21.45-0.71707-22-0.55283-10.112-0.5-21.249-0.16239-20.25-0.47828-20.25-0.14102-3.0145 0.38859-6.6978c0.68616-4.7719 0.62189-8.0276-0.22358-11.326-0.65258-2.5462-1.1691-7.2952-1.1479-10.553 0.0417-6.3865 5e-3 -10.052-0.21112-20.924-0.0764-3.85-0.0531-9.8125 0.0518-13.25 0.16803-5.507-0.0317-6.25-1.6798-6.25-1.2357 0-2.0448-0.91172-2.3841-2.6866-1.3665-7.1483 2.5378-6.8431 7.5238 0.58819l1.7434 2.5984 0.0384-2.5c0.0598-3.8924 2.2896-6.0351 6.4428-6.1913 2.0403-0.0767 4.0071 0.30528 4.3708 0.84885 1.2405 1.8541 4.0959 2.2649 5.5608 0.79994 2.4545-2.4545 7.169-1.812 9.4853 1.2925 1.799 2.4112 2.0506 2.5036 2.0424 0.75-0.0101-2.1722-7.0001-10.5-8.8132-10.5-0.61277 0-1.166-0.5625-1.2295-1.25-0.19825-2.1483-0.47168-3.1897-1.3432-5.1157-0.79447-1.7557-2.4122-1.8614-27.443-1.7936-14.629 0.0397-31.66-0.0916-37.847-0.2916s-11.501 0.0446-11.809 0.54359c-0.76654 1.2403-9.4427 1.1552-9.4427-0.0927 0-1.4514-4.7402-1.2295-5.3405 0.25-0.39861 0.98238-0.70528 0.9685-1.4324-0.0649-0.96084-1.3655-7.0242-1.1802-10.578 0.32326-1.1889 0.50297-2.1452 0.30683-2.6738-0.54838-0.57642-0.93268-1.22-1.028-2.1491-0.31833-0.72942 0.5572-5.0391 0.94535-9.5771 0.86255-7.5783-0.13826-8.3731 0.036-9.75 2.1374-0.82452 1.2584-1.4991 3.3631-1.4991 4.6771s-1.0926 3.5681-2.428 5.009-3.2112 3.9458-4.1685 5.5664c-1.152 1.9502-2.8326 3.1514-4.9702 3.5524-2.3463 0.44016-3.3994 1.2825-3.8505 3.0797-0.63135 2.5155-3.5576 3.5066-3.6132 1.2238-0.0167-0.6875-0.56154-0.35-1.2107 0.75-0.87863 1.4888-1.1672 20.21-1.1291 73.25 0.0288 40.129-0.33128 71.25-0.82448 71.25-0.48163 0-0.40827 0.87337 0.16301 1.9408 0.6102 1.1402 1.1731 12.152 1.3644 26.693 0.2308 17.54 0.66154 24.864 1.4782 25.136 0.83988 0.27996 1.1393-4.0444 1.104-15.943-0.0808-27.215-0.0721-27.384 1.3348-25.978 1.581 1.581 1.819 47.366 0.2503 48.15-0.55 0.275-1.1438-0.5125-1.3196-1.75-0.3542-2.4939-2.1804-3.1221-2.1804-0.74996 0 0.825-0.40097 1.5-0.89104 1.5-1.0432 0-0.6444 5.4013 0.77944 10.558 0.54856 1.9867 0.63658 4.5864 0.1956 5.7771s-0.67612 11.165-0.52254 22.165c0.25199 18.048 0.55514 62.864 0.47181 69.75-0.038 3.1378-1.9996 3.6348-3.6863 0.93401zm166.87-3.934c3.0301-3.4738 4.0134-6.6664 4.2696-13.862 0.17081-4.7981-0.22321-8.2549-1.143-10.028-0.77203-1.4881-1.5737-4.5404-1.7815-6.7829s-0.72282-7.4523-1.1445-11.577c-0.83968-8.2146-0.6777-11.629 0.67163-14.16 1.1885-2.2288 4.8164-1.2201 5.9044 1.6418 0.46184 1.2147 0.96256 12.741 1.1127 25.613 0.17118 14.675 0.72497 24.897 1.4847 27.405 0.70088 2.3137 1.2534 3.1358 1.3106 1.95 0.0544-1.1275 0.6198-2.5709 1.2565-3.2076 0.87682-0.87682 0.86717-1.5076-0.0398-2.6004-1.2274-1.4789-1.297-2.8993-0.98738-20.142 0.16095-8.9639 0.13762-39.924-0.0339-45-0.0372-1.1-0.49144-6.05-1.0095-11s-1.1766-20.925-1.4635-35.5-0.75102-28.975-1.0314-32-0.75908-19.675-1.0637-37-0.76922-36.45-1.0324-42.5c-1.6552-38.048-1.9454-58.805-0.94807-67.801 0.74449-6.7158 7e-3 -10.699-1.9805-10.699-1.1388 0-1.4091 3.3465-1.4743 18.25-0.0439 10.038-0.24113 19.15-0.43821 20.25s0.0322 3.35 0.50953 5 1.1309 17.175 1.4525 34.5c1.1378 61.31 2.171 98.49 2.8343 102 0.25989 1.375 0.73881 13.485 1.0643 26.911s0.62091 24.676 0.65655 25c0.35108 3.1916-0.45772 5.3511-2.172 5.7994-2.5985 0.67952-2.528 1.687 0.25 3.5746 1.8403 1.2505 2.0484 1.8644 1.1428 3.372-1.3928 2.3186-4.3834 2.9656-5.5077 1.1915-1.2053-1.9019-1.0908-6.6033 0.18-7.3886 0.70036-0.43285 0.49541-1.2878-0.59845-2.4966-1.2195-1.3475-1.5024-2.856-1.0598-5.6507 0.33212-2.0969 0.26392-6.9625-0.15155-10.812s-0.45428-10.15-0.0863-14c0.37945-3.9696 0.23361-8.4192-0.33689-10.278-1.3133-4.2797-2.0264-22.635-1.5164-39.035 0.1593-5.1221-0.0928-9.5493-0.56034-9.8382s-0.79773-3.2981-0.73389-6.6871c0.15307-8.1257-0.84639-69.134-1.3624-83.162-0.22254-6.05-0.11914-15.41 0.22977-20.8s0.3271-10.349-0.0485-11.02-1.0559-6.6111-1.5117-13.2c-0.51173-7.3972-1.2113-11.788-1.8288-11.48-0.55 0.275-1.0752 2.75-1.1671 5.5-0.38662 11.569-0.25755 30.436 0.24766 36.2 0.30076 3.4314 0.0901 7.047-0.47177 8.0968-0.7064 1.3199-0.6734 2.2387 0.10851 3.0206 1.4963 1.4963 2.3888 59.69 0.92929 60.592-0.66579 0.41148-0.60613 1.4037 0.17493 2.9092 0.82788 1.5957 0.9898 5.5864 0.53694 13.233-0.35662 6.0216-0.41882 12.793-0.13823 15.047 0.39468 3.171 0.14454 4.2391-1.105 4.7186-1.9853 0.76183-2.1201 3.2749-0.21486 4.006 2.0643 0.79214 2.7482 6.7269 2.6285 22.808-0.12971 17.418-0.21548 13.694 0.94118 40.868 0.88062 20.689 1.4468 41.783 2.0267 75.5 0.23111 13.439 0.58654 16.5 1.9157 16.5 0.42769 0 1.4645-0.7875 2.3041-1.75zm-14.082-257.9c-0.94083-1.6186-1.077-1.4825-1.1036 1.1036-0.0222 2.1513 0.26838 2.6512 1.0732 1.8464 0.79095-0.79095 0.79957-1.6267 0.0304-2.95zm-1.0443-17.079c-0.93799-1.611-1.0316-1.5794-1.0593 0.35776-0.0167 1.1688 0.30709 3.6438 0.71959 5.5l0.75 3.375 0.30934-3.7328c0.17013-2.053-0.15368-4.528-0.71959-5.5zm-14.09-20.208c0-0.51754-0.45-1.2191-1-1.559s-1 0.0835-1 0.94098 0.45 1.559 1 1.559 1-0.42344 1-0.94098zm15 0c0-0.51754-0.45-1.2191-1-1.559s-1 0.0835-1 0.94098 0.45 1.559 1 1.559 1-0.42344 1-0.94098zm0-9.618c0-1.4514-0.43284-2.2915-1-1.941-0.55 0.33992-1 1.4915-1 2.559s0.45 1.941 1 1.941 1-1.1516 1-2.559zm-153.5-10.398c1.1-0.49462 3.613-1.1631 5.5844-1.4855 4.0335-0.65966 9.9132-5.5862 11.705-9.8077 0.64209-1.5125 1.6536-2.75 2.2479-2.75s0.80234-0.45 0.46242-1-0.17755-1 0.36083-1c1.438 0 4.1392-12.957 4.1392-19.855 0-4.4914-0.65109-7.2153-2.642-11.053-1.4531-2.8008-3.0843-5.0923-3.625-5.0923-0.5516 0-0.72824-1.274-0.40248-2.9028 0.49714-2.4857 0.22189-2.9928-1.9159-3.5293-1.373-0.34461-2.2346-1.0502-1.9146-1.5679s-0.56161-1.2283-1.9591-1.5791-2.5409-1.0234-2.5409-1.4949-2.25-1.1556-5-1.5204-5-1.0553-5-1.5344-0.92656-0.87117-2.059-0.87117-1.7809 0.45-1.441 1c0.36394 0.58886-0.74244 1.0056-2.691 1.0136-4.4143 0.0182-7.5723 0.92714-8.1125 2.3349-0.31626 0.82418 2.5844 1.1515 10.205 1.1515 10.948 0 11.666 0.21732 15.918 4.817 5.7039 6.1703 7.1796 8.2882 7.1796 10.304 0 1.2435 0.36032 2.4836 0.80071 2.7557 0.72796 0.44991 1.4944 6.0886 1.5118 11.123 0.0137 3.9368-2.7856 12.078-5.6731 16.5-2.5428 3.8938-4.5485 6.0389-9.1394 9.7744-2.2145 1.8019-13.597 3.5552-23.618 3.6379-8.778 0.0725-10.309 0.30358-8.8371 1.3334 3.9828 2.7857 21.261 3.6331 26.455 1.2976zm193.58-4.0432c5.9198 0 11.04-1.0046 10.4-2.0404-0.27087-0.43828 0.86536-1.0951 2.525-1.4596s2.762-1.0761 2.4497-1.5814 0.065-0.91863 0.83826-0.91863 2.4437-0.9 3.712-2 2.5968-2 2.9521-2 1.1931-1.5127 1.8616-3.3615 2.3456-4.6613 3.7267-6.25 2.7675-3.8776 3.0807-5.0864c0.63253-2.4412-0.0365-19.9-0.96506-25.183-0.62315-3.5453-9.214-17.119-10.835-17.119-0.51667 0-0.66129-0.45-0.32137-1s-0.32265-1-1.4724-1-2.3494-0.675-2.666-1.5-1.6203-1.5-2.8972-1.5-2.9206-0.59901-3.6527-1.3311c-2.834-2.834-6.2907-2.9349-150.06-4.3789-43.954-0.44149-58.75-0.30045-58.75 0.55999 0 0.7494-2.2755 1.1501-6.5314 1.1501-4.6974 0-6.6833 0.39586-7.0724 1.4098-0.29754 0.77537-1.7459 1.7104-3.2186 2.0777-3.6536 0.91144-11.945 5.1373-13.884 7.0759-0.87176 0.87177-2.3288 3.0141-3.2377 4.7608s-2.177 4.0758-2.8177 5.1758c-3.6621 6.287-4.863 10.42-4.6663 16.06 0.25609 7.3423 0.18202 7.0857 1.6279 5.6398 0.66-0.66 3.766-1.2 6.9022-1.2 5.4737 0 5.7454-0.12384 6.7794-3.0902 1.5337-4.3995 3.5599-3.1504 3.9232 2.4184 0.16764 2.5695 0.73014 4.6718 1.25 4.6718s0.95943 0.5625 0.97682 1.25c0.0437 1.7287 9.0553 7.0631 10.125 5.9934 0.48349-0.48349-0.67578-1.4662-2.6377-2.236-1.9432-0.76247-3.7574-2.2929-4.0782-3.4404-0.31789-1.1369-1.3081-3.4992-2.2005-5.2497-1.3128-2.5752-1.3992-3.6728-0.45278-5.75 1.5492-3.4002 2.8271-3.245 3.5626 0.43272 0.33 1.65 0.96423 3 1.4094 3s1.6069-1.35 2.5815-3c1.5392-2.6057 2.3468-3 6.1442-3 2.5529 0 4.9962 0.62412 5.872 1.5 0.825 0.825 1.7572 1.5 2.0714 1.5 1.4607 0 4.4381 4.1166 5.0751 7.0168 1.1551 5.259-2.0616 10.288-7.3191 11.443-1.7611 0.38681-2.9466 1.1167-2.6343 1.6219s-1.1076 0.91863-3.1552 0.91863c-3.8554 0-11.395-2.774-11.395-4.1924 0-0.44415-0.51481-0.80755-1.144-0.80755s-2.5417-1.5362-4.25-3.4138c-2.9111-3.1997-3.5921-3.4458-10.856-3.9229l-7.75-0.50904-0.15753 2.6729c-0.22094 3.7486-0.17086 4.3222 0.64805 7.4229 1.2623 4.7796-1.8363 3.2227-3.6557-1.8368-1.2697-3.5309-1.5802-7.3719-1.3487-16.685 0.16537-6.6542-0.0526-11.453-0.48435-10.663-2.9494 5.3922-3.8585 27.001-1.2518 29.757 0.6875 0.72678 1.25 2.0825 1.25 3.0126s1.125 2.5361 2.5 3.5686 2.5 2.4431 2.5 3.1345c0 1.7368 5.1581 7.4628 6.7227 7.4628 0.70253 0 1.2773 0.44143 1.2773 0.98095s1.125 1.2633 2.5 1.6084 2.5 1.0287 2.5 1.519 1.2375 0.86307 2.75 0.8282l2.75-0.0634-2.4416-0.97527c-2.6767-1.0692-10.48-8.8097-9.6838-9.6059 0.27283-0.27283 1.5253 0.22484 2.7832 1.1059s3.087 1.602 4.0647 1.602 1.7775 0.41045 1.7775 0.9121 1.8154 1.2188 4.0341 1.5937 5.3872 1.3566 7.0411 2.1816c1.9696 0.98258 4.6315 1.3277 7.7159 1.0003 6.8916-0.73139 15.209-2.8206 15.209-3.8202 0-0.47712 0.74975-0.86749 1.6661-0.86749 1.7122 0 2.3405-0.47319 8.3339-6.2764 5.0853-4.9239 7.3169-12.76 5.8186-20.432-0.62215-3.1855-1.9609-6.9863-2.9749-8.4462s-1.8437-2.9818-1.8437-3.3819c0-0.75623-5.1475-5.6746-9.1195-8.7137-1.258-0.9625-3.4557-1.75-4.8838-1.75s-3.1366-0.54-3.7966-1.2c-0.93333-0.93333-1.2-0.93333-1.2 0 0 0.66218-1.3223 1.2-2.9503 1.2-1.6227 0-3.3102 0.59644-3.75 1.3254s-1.4747 1.6466-2.2997 2.0392c-2.9156 1.3874-5.63 3.1416-5.6254 3.6354 3e-3 0.275-0.517 1.4-1.1546 2.5-0.97386 1.6802-1.164 1.7294-1.1896 0.30716-0.0368-2.0475 3.6995-8.8221 5.8224-10.557 0.85234-0.69662 1.0282-1.25 0.39731-1.25-0.62267 0-1.4102 0.45-1.7502 1s-1.829 1.0035-3.309 1.0078c-2.7264 8e-3 -5.191 3.3315-5.191 7.0004 0 0.88523-0.64471 2.483-1.4327 3.5506-1.0804 1.4638-1.7189 1.6591-2.5969 0.7942-0.88409-0.87094-0.60091-2.3749 1.1768-6.25 1.2876-2.8067 2.7964-5.1031 3.3528-5.1031s1.5645-1.2488 2.2401-2.7751c1.7564-3.9679 6.1667-6.2249 12.164-6.2249 2.8026 0 5.0957-0.45 5.0957-1 0-0.55664 2.6863-1 6.059-1 3.7847 0 5.827 0.37536 5.441 1-0.34198 0.55333 0.41333 1.0171 1.691 1.0382 53.234 0.88047 71.875 0.87731 71.325-0.0121-0.34878-0.56435-0.1576-1.0261 0.42486-1.0261s1.059 0.45 1.059 1 2.025 1 4.5 1 4.5-0.41265 4.5-0.91699 1.6875-0.73895 3.75-0.52134c7.9917 0.8432 87.071 0.37346 92.717-0.55075 3.9017-0.63865 6.3073-0.63652 6.95 6e-3 0.5406 0.5406 1.9858 0.98291 3.2115 0.98291s2.9036 0.675 3.7286 1.5 1.9096 1.5 2.4103 1.5 2.6108 1.4525 4.6892 3.2279c4.1346 3.5317 8.5415 12.018 8.5465 16.458 4e-3 3.8144-4.0659 17.314-5.2203 17.314-0.50917 0-1.6008 0.675-2.4258 1.5s-3.0428 1.5-4.9286 1.5-3.4286 0.45-3.4286 1-2.475 1-5.5 1-5.5-0.39375-5.5-0.875-1.2711-1.1292-2.8247-1.4399c-2.1378-0.42757-3.2021-1.5256-4.3766-4.5156-0.94292-2.4004-1.2139-4.4841-0.69059-5.3101 0.47371-0.74764 0.86818-2.6459 0.8766-4.2184 8e-3 -1.5778 1.0236-3.9228 2.2653-5.2327 1.918-2.0235 3.209-2.374 8.75-2.3756 7.1178-2e-3 8.1264 0.37715 9.8855 3.7174 1.7485 3.3202 3.0129 2.7331 2.1693-1.0073-1.0715-4.751-2.7914-7.0466-7.1648-9.5637-2.1394-1.2313-3.8899-2.6753-3.8899-3.2089 0-1.2854-13.705-1.2572-14.5 0.0299-0.33992 0.55-1.4833 1-2.5408 1-2.7778 0-8.3853 5.8499-10.901 11.373-3.8299 8.4072-3.7253 18.207 0.28308 26.526 2.7701 5.7488 11.282 12.021 18.397 13.556 1.7812 0.38443 3.5195 1.1536 3.8629 1.7092 0.41354 0.66912 0.99138 0.64315 1.7115-0.0769 0.59792-0.59783 3.1909-1.087 5.7621-1.087zm-237.78-12.226c-2.1264-2.7457-2.3918-3.7742-0.97385-3.7742 0.79331 0 1.702 0.99285 2.0194 2.2063 0.69846 2.6709 0.28685 3.2882-1.0455 1.5678zm174.2-10.704c1.65 5e-3 7.2111 0.24877 12.358 0.54275 7.4924 0.42795 9.2712 0.27062 8.9229-0.78924-0.55827-1.6987-5.1146-2.2506-7.5999-0.92058-1.0549 0.56455-2.2152 0.72927-2.5784 0.36604-1.1201-1.1201-2.9848-1.2036-42.322-1.8937-31.132-0.54618-38.518-0.42329-39.826 0.66269-1.2329 1.0232-1.7792 1.0536-2.3495 0.1308-0.97114-1.5713-20.644-1.6499-27.604-0.11029-0.55 0.12166 3.275 0.72072 8.5 1.3312 5.8008 0.67781 25.076 1.0248 49.5 0.89105 22-0.12045 41.35-0.21529 43-0.21076zm-136.81-1.8568c0.65394-0.41579 1.4212-2.0964 1.7051-3.7347 0.49356-2.8485 0.44931-2.8913-1.0122-0.9787-3.5518 4.6478-3.8571 6.7254-0.69284 4.7134zm208.95-0.21339c0.81248 0 1.2229-0.41157 0.91199-0.91459s5e-5 -1.1425 0.69098-1.421 0.27587-0.54199-0.92234-0.58541-2.8857 0.62819-3.75 1.4925c-2.0079 2.0079-2.0038 2.8085 0.0104 2.0356 0.86994-0.33385 2.2465-0.60699 3.059-0.60699zm-139.64-3c0-0.61586 5.0408-1 13.122-1 11.676 0 12.982-0.16897 11.85-1.5328-1.9005-2.2899-54.224-2.0727-56.532 0.23469-0.84493 0.84492-1.2653 1.8071-0.93424 2.1382s1.0088-0.0562 1.506-0.86069c0.70816-1.1458 1.1666-1.2001 2.1162-0.25048 0.88916 0.88916 4.498 1.0457 13.542 0.58732 9.0128-0.45679 12.329-0.31437 12.329 0.52944 0 0.63487 0.675 1.1543 1.5 1.1543s1.5-0.45 1.5-1zm-72.336-1.5675c0.95735-2.4948-1.6953-6.4325-4.3332-6.4325-1.2821 0-2.331 0.4645-2.331 1.0322s-1.0125 1.4392-2.25 1.9366c-1.4644 0.58861-1.6931 0.92652-0.65499 0.96777 0.87726 0.0349 2.4095 0.96339 3.405 2.0634 2.1633 2.3904 5.3278 2.6124 6.1643 0.43254zm148.59 0.47056c3.2568-0.44 1.7752-1.9026-2-1.9745-2.0625-0.0393-12.075-0.27915-22.25-0.53311-18.737-0.46766-25-0.0606-25 1.625 0 1.202 41.395 1.9438 49.25 0.88256zm7.7674-1.3821c-0.91135-1.0981-1.7155-1.2178-3.1224-0.46481-2.6828 1.4358-2.362 1.9438 1.2274 1.9438 2.6424 0 2.9337-0.22738 1.895-1.479zm45.983-1.1702c0-0.78936-0.53817-2.0113-1.1959-2.7155-0.96847-1.0368-1.539-0.98646-3 0.26445-2.2874 1.9585-2.3108 3.841-0.0541 4.3423 2.4976 0.55483 4.25-0.22503 4.25-1.8913zm-40.939-4.4158c0.49941-0.78923 0.91492-2.6459 0.92334-4.126s0.43069-2.9477 0.93837-3.2615 1.2184-1.9153 1.5795-3.559 1.0621-2.9885 1.5579-2.9885 1.1798-1.1089 1.52-2.4642 1.4737-2.7356 2.519-3.0674 1.9006-1.1979 1.9006-1.9248c0-0.95829-1.5805-1.2834-5.75-1.1826-3.1625 0.0764-35.562-0.26082-72-0.74942l-66.25-0.88836v2.5314c0 1.3923 0.675 2.7904 1.5 3.107s1.5 1.0585 1.5 1.6488 0.84408 1.9792 1.8757 3.0866 2.1227 3.8546 2.4245 6.1049 1.4817 5.0245 2.6219 6.1647c2.0322 2.0322 3.0434 2.0794 51.281 2.3924 27.064 0.1756 49.359 0.47028 49.544 0.65484s5.0764 0.25019 10.871 0.14584c7.9058-0.14239 10.762-0.54789 11.443-1.6247zm-158.7-1.435c-0.31659-0.825-1.2025-1.5-1.9686-1.5-1.7321 0-1.8334 1.6556-0.14301 2.3377 2.208 0.89097 2.7001 0.69577 2.1116-0.83772zm173.85-17.262c-1.8788-0.62629-4.4415 0.58539-3.717 1.7575 0.41139 0.66565 1.3693 0.61095 2.8107-0.16049 1.4147-0.75712 1.7346-1.3209 0.90632-1.597zm-215.82 0.18009c0.93873-2.4463 0.7352-2.7695-0.89301-1.4182-1.6624 1.3796-1.9902 3-0.60699 3 0.49116 0 1.1662-0.7118 1.5-1.5818zm222.61-1.9182c0.68469-0.825 1.9773-1.5346 2.8724-1.5768s3.4276-0.69362 5.6276-1.4475l4-1.3706-6 0.51378c-6.6849 0.57242-10.5 2.044-10.5 4.0501 0 1.793 2.4579 1.6892 4-0.16898zm21.25-1.2057c-1.2375-0.23836-2.25-0.85207-2.25-1.3638s-1.44-0.93045-3.2-0.93045c-1.9388 0-2.8256 0.35588-2.25 0.90294 1.1868 1.128 4.188 1.8712 7.45 1.8449 2.2946-0.0185 2.3151-0.0558 0.25-0.45355zm-240.59-3.2943c0.97468-1.65 2.0905-3 2.4796-3s2.0575-1.35 3.7075-3 3.4812-3 4.0692-3 2.2721-1.35 3.7422-3 3.4435-3 4.3853-3 2.2725-0.675 2.9572-1.5c1.0429-1.2567 0.88505-1.5-0.97326-1.5-2.5048 0-8.1159 2.8577-9.3264 4.75-0.43983 0.6875-1.4664 1.25-2.2814 1.25s-1.7407 0.675-2.0573 1.5-1.2025 1.5-1.9686 1.5-1.393 0.5109-1.393 1.1353-1.125 2.1779-2.5 3.4522-2.5 2.9234-2.5 3.6647-0.54 1.8878-1.2 2.5478c-0.86741 0.86741-0.88308 1.2-0.0565 1.2 0.62891 0 1.9409-1.35 2.9156-3zm255.31-15.4c-1.358-1.298-9.1071-3.5178-7.9374-2.2737 1.0764 1.1448 6.523 3.6612 7.9374 3.6671 1.2857 5e-3 1.2857-0.16452 0-1.3934zm-224.96-3.6004c1.1383-0.7356 0.71622-0.97307-1.75-0.98469-1.7875-8e-3 -3.25 0.43469-3.25 0.98469 0 1.2702 3.0345 1.2702 5 0zm215.45 0.0922c-1.1167-1.0671-11.452-1.9024-11.451-0.92552 1e-3 1.1324 2.2932 1.6721 7.4506 1.7544 2.9937 0.0477 4.5745-0.27984 4-0.82886zm-154.37-1.0922c3.9455 0 6.9182-0.4297 6.9182-1 0-0.55-0.3375-0.94671-0.75-0.88158-2.8466 0.44947-12.25-0.27332-12.25-0.9416 0-0.45274 5.0625-0.72128 11.25-0.59674 7.6374 0.15371 11.481-0.14391 11.969-0.92683 0.53798-0.86233 1.2283-0.83792 2.7364 0.0968 2.4042 1.49 9.0441 1.6735 9.0441 0.25 0-0.55 1.3766-1 3.059-1 1.7847 0 2.8016 0.41658 2.441 1-0.33992 0.55 0.30852 1 1.441 1s2.059-0.45 2.059-1c0-1.4446 2.565-1.2291 3.8538 0.32379 0.80229 0.9667 0.78137 1.6411-0.0776 2.5-0.90161 0.90161-0.45636 1.1762 1.9072 1.1762 2.2418 0 3.226-0.54557 3.6061-1.999 0.28751-1.0995 0.115-2.251-0.38337-2.559-1.2279-0.75887-1.1523-4.1939 0.1014-4.6086 0.55414-0.18333-4.6209-0.24603-11.5-0.13932-7.3141 0.11345-12.508-0.19797-12.508-0.75 0-0.51921-1.9125-0.93712-4.25-0.9287-3.1125 0.0112-3.8485 0.27478-2.75 0.98469 2.1723 1.4038-4.554 1.2986-10.92-0.17091-4.0258-0.92928-5.5726-0.90335-7.4954 0.12567-1.6528 0.88456-3.9554 1.0668-7.2459 0.57331-2.6528-0.3978-11.914-0.67172-20.581-0.6087-10.089 0.0733-15.758-0.25133-15.758-0.90245 0-0.55933-0.70156-1.017-1.559-1.017s-1.2809 0.45-0.94098 1c0.36058 0.58342-0.65628 1-2.441 1-3.6504 0-4.0231 1.683-0.65616 2.9631 1.3216 0.50246 2.6981 1.3913 3.059 1.9752 0.4234 0.68507 7.0203 1.0617 18.597 1.0617 11.051 0 17.941 0.37638 17.941 0.9801 0 0.57807-2.2561 0.78813-5.5 0.51209-4.3406-0.36936-5.5-0.164-5.5 0.97421 0 1.0801 1.6947 1.528 6.75 1.7838 3.7125 0.18785 7.3493 0.20841 8.0818 0.0457s4.445-0.29585 8.25-0.29585zm-10.082-3c0-0.55 0.45-1 1-1s1 0.45 1 1-0.45 1-1 1-1-0.45-1-1zm34.45 1.8678c0.54462-0.49747-2.3358-0.86776-6.75-0.86776-4.235 0-7.7 0.42284-7.7 0.93963 0 1.9238 12.332 1.8624 14.45-0.0719zm43.05 1.1322c1.2601-0.54148-2.0695-0.82158-9-0.75712-9.7667 0.0908-10.271 0.17573-4.5 0.75712 9.4752 0.95453 11.279 0.95453 13.5 0zm28.95 0.0675c-1.1612-1.1398-7.6194-1.5715-16.95-1.1331-5.9558 0.27982-6.4779 0.43878-3.5 1.0656 5.3006 1.1157 21.573 1.1694 20.45 0.0675zm6.55 0.53948c0-0.94863-2.9934-1.4267-3.527-0.56332-0.32508 0.52599 0.33551 0.95634 1.468 0.95634s2.059-0.17686 2.059-0.39301zm13.75-0.29632c-0.9625-0.25152-2.5375-0.25152-3.5 0s-0.175 0.45733 1.75 0.45733 2.7125-0.2058 1.75-0.45733zm5.5 0.0271c-0.6875-0.27741-1.8125-0.27741-2.5 0s-0.125 0.50439 1.25 0.50439 1.9375-0.22698 1.25-0.50439zm17.5-0.054c-1.5125-0.22913-3.9875-0.22913-5.5 0s-0.275 0.41659 2.75 0.41659 4.2625-0.18747 2.75-0.41659zm-172-1.0253c-3.7125-0.19241-9.7875-0.19241-13.5 0s-0.675 0.34983 6.75 0.34983 10.462-0.15742 6.75-0.34983zm70.75-0.25846c-0.33992-0.55-1.0415-1-1.559-1s-0.94098 0.45-0.94098 1 0.70156 1 1.559 1 1.2809-0.45 0.94098-1zm106.49-4.986c1.1077-1.1077 2.014-2.1902 2.014-2.4056 0-1.5911-12.883-1.8501-82.25-1.6531l-15.75 0.0447v5.6134l46.986 0.20732c45.904 0.20255 47.032 0.16096 49-1.8067zm2.2203-7.9062c2.043 0.82934 3.4228 0.78137 5.6303-0.19575 2.6484-1.1723 2.7771-1.4413 1.365-2.8532-1.375-1.3748-8.2586-1.5606-58.312-1.5735-31.214-8e-3 -57.083-0.34557-57.488-0.75-1.2267-1.2267-15.402-0.87696-15.402 0.38004 0 0.8112-5.795 0.89194-21.25 0.29606-11.688-0.45062-25.234-0.69606-30.102-0.54543-6.0941 0.18854-8.6462-0.0595-8.191-0.79606 0.36369-0.58847 0.2222-1.0699-0.31443-1.0699s-1.1257 0.44623-1.309 0.99163-3.6832 1.145-7.7774 1.3323c-4.5093 0.20638-7.5976 0.80105-7.8333 1.5084-0.51099 1.533-3.9423 1.5085-4.4557-0.0318-0.25678-0.77034-0.62285-0.61819-1.0233 0.42529-0.56228 1.4653 1.3089 1.627 19.066 1.6474 30.978 0.0357 166.65 1.2517 166.89 1.4959 0.12086 0.12086 4.1747-0.13568 9.0086-0.5701 5.8537-0.52607 9.6926-0.42296 11.495 0.30873zm127.34-7.0207c0.5225-0.50207 8.6325-1.0646 18.022-1.25 20.785-0.41048 20.803-0.4195 20.21-10.603-0.21547-3.7039-0.89119-7.6221-1.5016-8.7072-1.3549-2.4085 18.33-1.8937-155.28-4.0612-19.525-0.24376-62.95-0.71755-96.5-1.0529l-62.5-0.63306c-0.825-0.0129-9.763 0.32853-19.862 0.75866l-18.362 0.78206-1.8553 3.0507c-1.0204 1.6779-1.448 3.3024-0.95029 3.61s0.95654 3.5876 1.0196 7.2889 0.16615 7.4046 0.22917 8.2296c0.0925 1.2115 1.8137 1.5 8.9479 1.5 5.2222 0 8.8333-0.40881 8.8333-1 0-1.2692 4.7194-1.322 5.1667-0.0578 0.39047 1.1037 32.479 1.6028 35.096 0.54592 0.96951-0.39152 2.3195-0.27286 3 0.26371 1.5004 1.183 4.7373 1.2387 4.7373 0.0815 0-1.2985 7.7806-0.97889 10.144 0.41667 1.6937 1 2.2076 1 2.5698 0 0.59212-1.635 9.4809-1.6551 11.111-0.025 0.93889 0.93889 1.6595 0.95357 3.0858 0.0628 1.2983-0.81078 7.2616-1.043 19.725-0.76824 20.53 0.45266 115.38 0.37588 122.86-0.0994 11.879-0.75468 52.953-0.28912 54.039 0.61252 0.64316 0.53377 6.2072 0.91707 12.365 0.85176s11.473 0.15899 11.812 0.49843c0.89772 0.89772 2.7397 0.75566 3.8338-0.29569zm-312.36-28.77c-0.72188-0.28887-1.5844-0.25335-1.9167 0.0789s0.25834 0.56864 1.3125 0.52522c1.165-0.048 1.4019-0.28494 0.60417-0.60416zm189.81-0.31689c0-0.55 2.0516-1 4.559-1 2.7847 0 4.3185 0.38919 3.941 1-0.33992 0.55 0.11008 1 1 1s1.3399-0.45 1-1c-0.3678-0.59512 0.82295-1 2.941-1 1.9575 0 3.559 0.45 3.559 1s0.9 1 2 1 2-0.45 2-1c0-1.3191 3.6116-1.2782 6.1297 0.0694 1.3103 0.70126 2.4065 0.73269 3.1843 0.0913 0.7572-0.62442 23.22-0.82084 62.121-0.54322 71.933 0.51337 66.978 1.2076 68.057-9.5345 1.0965-10.918 0.95748-11.083-9.3591-11.083-5.4587 0-9.1825-0.44989-9.9326-1.2-0.93333-0.93333-1.2-0.93333-1.2 0 0 0.66-0.70156 1.2-1.559 1.2s-1.2809-0.45-0.94098-1c0.60092-0.97231-19.441-1.4956-34.5-0.90084-3.575 0.1412-7.625 0.18651-9 0.10069-17.077-1.0659-37-1.2235-37-0.29279 0 1.3833-4.6667 1.4412-5.5151 0.0685-0.42502-0.68771-10.962-0.79957-32.059-0.34034-25.249 0.54964-31.426 0.43211-31.426-0.59801 0-0.90246-0.37013-0.98038-1.25-0.26313-1.2708 1.0359-15.033 1.0047-128.5-0.29169-35.978-0.41106-54.25-0.28239-54.25 0.38202 0 0.551-1.3709 0.96285-3.0465 0.9152s-3.4928 0.35964-4.0382 0.90505c-0.5636 0.5636-0.86728 5.2703-0.7035 10.904l0.28816 9.9118 30 0.50221c16.5 0.27622 60.713 0.50122 98.25 0.5s68.25 0.33529 68.25 0.74779 1.5749 0.75 3.4999 0.75 3.5-0.45 3.5-1zm-61.5-27.999c-0.19762-0.31976 1.4089-0.65189 3.5701-0.73807s3.9294 0.26946 3.9294 0.79032 0.70156 0.94702 1.559 0.94702 1.3507-0.3375 1.096-0.75 46.181-0.77211 103.19-0.79912c81.377-0.0386 104.15-0.31978 105.95-1.3085 2.2493-1.2351 2.2902-1.5554 2.1258-16.626l-0.16764-15.367-4.8137-1.5745c-5.5481-1.8147-8.5582-1.9979-9.4379-0.57449-0.83677 1.3539-9.5 1.2866-9.5-0.0738 0-0.72971-6.6493-1.0826-20.75-1.1011-11.412-0.015-30.151-0.23308-41.642-0.48462s-21.277-0.0718-21.748 0.39947-11.77 0.74558-25.108 0.60962c-128.79-1.3128-142.63-1.3497-143.23-0.38183-0.84694 1.3704-7.52 1.3332-7.52-0.0418 0-0.75972-12.806-0.87045-43.75-0.37831-24.062 0.3827-43.926 0.85417-44.14 1.0477-0.76835 0.69283-1.1468 35.405-0.38639 35.439 0.42716 0.0188 22.377 0.28992 48.777 0.60258s48.077 0.63483 48.171 0.71591c0.55111 0.47535 54.124 0.12517 53.83-0.35185zm-112.63-42.159c21.796 0.0605 57.966 0.40444 80.379 0.76437 34.297 0.5508 40.752 0.43585 40.765-0.72587 9e-3 -0.83 0.30822-0.98161 0.75-0.38029 0.89913 1.2238 184.38 1.54 183.62 0.31639-0.2775-0.44901 1.772-0.81639 4.5545-0.81639s5.059 0.45 5.059 1 1.8 1 4 1 4-0.45 4-1 1.4271-1 3.1713-1 3.9942-0.74474 5-1.655c2.3976-2.1698 2.4471-7.9494 0.0787-9.1952-3.4502-1.815-14.712-2.1783-81.75-2.6374l-87.5-0.59848c-10.725-0.073-21.642 0.19316-24.259 0.59155-3.133 0.47685-5.234 0.33017-6.1491-0.42929-1.5966-1.3251-15.592-1.2674-15.592 0.0643 0 0.47274-2.2766 0.85953-5.059 0.85953-3.118 0-4.8219-0.38367-4.441-1 0.33992-0.55-0.057-1-0.88197-1s-1.8018 0.48839-2.1708 1.0853c-0.45451 0.73542-3.4556 0.85743-9.309 0.37847-4.751-0.38877-12.013-0.70235-16.138-0.69686-4.125 5e-3 -22.125 0.0672-40 0.13717s-43.975-0.0385-58-0.2411c-14.025-0.20256-26.288 0.0312-27.25 0.51955-2.4512 1.2436-2.1785 3.691 0.70956 6.3676 1.3528 1.2537 2.765 3.5553 3.1382 5.1147 0.92119 3.8482 1.361 4.4787 2.5928 3.7175 0.57879-0.35772 18.885-0.60092 40.681-0.54044zm106.13-17.715c0-0.48041 3.15-0.93822 7-1.0174 5.0532-0.10387 7.0043 0.20859 7.0153 1.1235 0.0121 1.0027 0.18662 0.99732 0.83575-0.0259 0.6579-1.037 9.0178-1.1934 42.197-0.78949 49.388 0.60132 123.44 0.68139 126.95 0.13727 1.375-0.21332 11.612-0.42536 22.75-0.4712 16.911-0.0696 20.25-0.32053 20.25-1.5221 0-0.94031-1.4723-1.6279-4.25-1.9847-2.3375-0.30028-36.065-0.73305-74.95-0.96169-52.716-0.30998-70.807-0.1231-71.119 0.7347-0.3034 0.83207-1.0657 0.76681-2.7547-0.23582-1.6619-0.98651-2.4445-1.0586-2.714-0.25-0.20831 0.62493-0.8178 1.1362-1.3544 1.1362s-0.69757-0.45-0.35765-1c0.90835-1.4698-16.793-1.307-18.268 0.1679-0.89054 0.89054-2.1304 0.87955-5.2206-0.0463-2.229-0.66781-4.4739-0.95388-4.9887-0.63571s-10.068 0.55293-21.229 0.52169c-41.377-0.11582-108.34-0.12483-109.79-0.0148-0.825 0.0625-6.1812-0.16311-11.903-0.50146-7.784-0.46032-10.597-0.30111-11.174 0.63244-0.53276 0.86202-1.181 0.93721-2.0973 0.24327-1.963-1.4865-7.0702-1.5632-8.0906-0.12144-0.7094 1.0023-0.9898 1.0031-1.395 4e-3 -0.59703-1.4714-6.9484-1.6935-7.8259-0.27365-0.8159 1.3202-12.451 1.0806-14.664-0.30194-1.3056-0.81535-2.6515-0.78645-5.131 0.11016-1.8487 0.66849-4.3793 1.2154-5.6236 1.2154-1.3678 0-2.0958 0.49424-1.8412 1.25 0.30151 0.89487 3.6634 1.2763 11.833 1.3424 6.2767 0.0509 32.961 0.39257 59.298 0.75937 27.793 0.38708 48.354 0.29149 49-0.22779 0.63931-0.51358 5.1606-0.55156 10.614-0.0892 5.225 0.44305 13.15 0.55827 17.611 0.25603 5.495-0.37228 8.3362-0.18528 8.809 0.57979 0.82444 1.334 2.5799 1.5081 2.5799 0.25585zm-13-9.0728c8.4209-0.0359 14.246 9e-3 17 0.12952 5.1016 0.2241 15.647-1e-3 20.25-0.43243 2.6542-0.24871 4.75-0.0248 4.75 0.50757 0 0.58294 3.784 0.70007 9.75 0.30179 5.3625-0.35799 34.838-0.65101 65.5-0.65116 34.723-1.7e-4 55.75-0.36023 55.75-0.95463 0-0.52491 0.675-0.95437 1.5-0.95437s1.5 0.49467 1.5 1.0993c0 0.77492 4.2783 0.92959 14.5 0.52422 9.1529-0.36299 14.5-0.21522 14.5 0.40073 0 0.5659 3.9905 0.97578 9.5 0.97578 5.6667 0 9.5-0.40351 9.5-1 0-1.4358 9.6471-1.2356 12.044 0.25 2.7417 1.6992 3.8947-0.23386 4.0262-6.75 0.0555-2.75 0.27539-10.625 0.48867-17.5 0.6522-21.023 0.79153-51.255 0.35585-77.215-0.36023-21.464-0.63594-24.936-2.0963-26.396-1.4903-1.4898-3.9352-1.6359-21.5-1.2851-27.954 0.5583-171.34 0.10269-173.04-0.54984-0.77428-0.29712-1.1664-0.9307-0.87149-1.408s33.704-1.202 74.243-1.6106c52.494-0.52909 74.239-1.0728 75.558-1.8893 1.4354-0.889 2.0392-0.84431 2.6886 0.19904 0.85468 1.3731 8.5446 1.1908 15.851-0.37571 2.138-0.45836 3.25-0.31577 3.25 0.41674 0 0.61243 0.675 1.1135 1.5 1.1135s1.5-0.45 1.5-1 2.2766-1 5.059-1c3.118 0 4.8219 0.38367 4.441 1-0.33992 0.55 0.11008 1 1 1s1.3399-0.45 1-1c-0.37769-0.61111 1.1645-1 3.9657-1 4.0002 0 4.7079-0.32654 5.559-2.5651 0.53639-1.4108 0.97525-4.0897 0.97525-5.9531 0-2.921-0.50762-3.6289-3.6831-5.1357-2.6912-1.2771-3.7909-1.4244-4.0833-0.54692-0.44657 1.3397-28.16 1.6089-36.234 0.35194-3.8819-0.60439-4.4673-1.0062-4.2618-2.9259 0.20366-1.9025-0.24473-2.2253-3.0917-2.2253-3.04 0-3.447-0.37008-4.6746-4.25-0.77659-2.4545-1.2336-7.5242-1.0817-12 0.24134-7.1124 0.10221-7.75-1.6912-7.75-1.0748 0-2.5076 0.66688-3.184 1.482-1.4842 1.7883-2.1088 14.531-0.79475 16.213 0.51331 0.65722 0.78625 2.2322 0.60653 3.5-0.31865 2.2478-0.56986 2.2988-10.122 2.0521-13.178-0.34032-14.172-1.2134-14.291-12.559-0.11804-11.24 0.10637-10.688-4.3466-10.688-4.8964 0-5.5796 1.5603-5.2548 12 0.30445 9.785-0.48994 10.779-8.869 11.099-5.1876 0.19794-7.1615-0.18919-10.127-1.9861-4.0579-2.4587-4.8719-4.6683-4.646-12.613 0.21014-7.392-0.77537-9.6818-4.0062-9.3081-2.6351 0.30478-2.6733 0.42261-3.5027 10.808-0.46122 5.775-1.3038 11.062-1.8724 11.75-0.64204 0.77625-3.6129 1.25-7.8388 1.25-6.1605 0-7.0013-0.24956-8.8776-2.6349-1.5787-2.007-2.0758-4.092-2.0862-8.75-0.0191-8.5456-0.72154-10.615-3.603-10.615-2.7233 0-2.7691 0.20949-2.8377 13l-0.0456 8.5-6.5 0.15012c-13.667 0.31565-15.743-1.265-16.347-12.444-0.51211-9.482-0.98659-10.634-3.768-9.145-1.8182 0.9731-1.9481 1.81-1.4764 9.5177 0.28441 4.6479 0.26067 9.119-0.0528 9.9358-0.89194 2.3244-16.327 2.104-18.563-0.26495-0.90853-0.9625-2.4089-2.3773-3.3341-3.144-1.3317-1.1034-1.5827-2.5623-1.2046-7 0.5724-6.7185-0.4874-10.106-3.1617-10.106-2.4963 0-2.9597 1.8553-2.623 10.5 0.45533 11.688 0.5943 11.5-8.5062 11.5-5.6179 0-8.2426-0.42242-9.3202-1.5-2.2073-2.2073-5.3725-1.8316-8.4263 1-1.9971 1.8519-3.8654 2.5241-7.2064 2.5931-3.8254 0.079-3.2365 0.31953 3.8787 1.5843 6.9688 1.2387 8.5347 1.2653 9.25 0.15687 0.60432-0.93639 1.0848-1.0062 1.6111-0.23422 0.4125 0.60503 1.425 1.357 2.25 1.671 1.8085 0.68841-1.7606 0.85343-26.75 1.2368-10.984 0.1685-19.25-0.0918-19.25-0.6063 0-0.49587-0.70156-0.90159-1.559-0.90159s-1.2955 0.42637-0.97343 0.94749c0.36453 0.58983-12.69 0.94576-34.584 0.94291-23.385-3e-3 -35.524 0.34961-36.227 1.0525-1.3318 1.3318-9.9245 1.3897-11.238 0.0757-1.2781-1.2781-19.766-1.8052-20.419-0.58216-0.275 0.51504 0.95305 1.313 2.729 1.7732 1.7905 0.46396 5.7132 3.2621 8.8054 6.281l5.5764 5.4443 32.695 0.53271c91.975 1.4986 102.33 1.5549 101.71 0.55369-0.34716-0.56174-0.19215-1.0213 0.34448-1.0213s1.1257 0.42957 1.309 0.9546 6.2958 1.2673 13.583 1.6496c10.116 0.53057 13.25 1.0144 13.25 2.0454 0 1.0528-2.4793 1.3544-11.25 1.3686-42.831 0.0691-89.041 0.0664-93.25-6e-3 -2.75-0.047-15.015 0.20004-27.256 0.54898-21.729 0.61942-22.266 0.68533-22.707 2.7864-0.35559 1.6965-0.0853 75.217 0.37376 101.65 0.0525 3.025-0.18358 9.2037-0.52469 13.73-0.6172 8.1907-0.60759 8.2352 1.9913 9.2233 1.6005 0.6085 21.833 0.99495 52.262 0.99823 27.308 3e-3 49.89 0.24493 50.183 0.53773s1.2399 0.31976 2.1047 0.0599 4.0473-0.48298 7.0723-0.49586zm64.613-147.87c-0.97987-1.5855-6.844-2.0094-15.594-1.1274-6.2712 0.6322-8.6493 0.54344-9.1973-0.34328-0.56992-0.92214-1.0234-0.91168-1.9808 0.0457-1.4787 1.4787-7.8416 1.6748-7.8416 0.24163 0-0.55-0.675-1-1.5-1s-1.5 0.45-1.5 1c0 1.4779-5.3595 1.2137-8.5073-0.41942l-2.7359-1.4194 3.7249-1.0285c2.4452-0.67516 19.75-0.83527 50.372-0.46608 25.656 0.30933 62.165 0.62339 81.133 0.69791 30.465 0.11969 34.521 0.31846 34.788 1.7046 0.2727 1.4143-5.5323 1.535-58.851 1.2234-41.202-0.24077-59.547-0.0194-60.449 0.72946-0.75243 0.62446-1.5322 0.6921-1.8602 0.16136zm-114.43-2.8664c-0.72188-0.28887-1.5844-0.25335-1.9167 0.0789s0.25834 0.56864 1.3125 0.52522c1.165-0.048 1.4019-0.28494 0.60417-0.60416zm264-2.4531c3.4737-0.0749 5.3805-0.32108 4.2374-0.54705-3.3623-0.66471-5.4217-6.8266-5.4217-16.222 0-7.8942-0.09-8.2204-2.1827-7.914-2.9608 0.43347-4.057 4.6946-3.3626 13.072 0.56987 6.8752-0.57013 10.748-3.1638 10.748-0.67544 0-0.97221 0.66676-0.65949 1.4817 0.42222 1.1003 1.0407 1.229 2.4029 0.5 1.0089-0.53993 4.6764-1.043 8.15-1.1179zm-273.68 0.13618c0.87681-1.4187 6.8439-1.2416 8.425 0.25 1.06 1 1.4167 1 1.7833 0 0.26015-0.7095 2.26-1.2804 4.625-1.3203 3.2444-0.0547 3.724-0.26051 2.1667-0.92971-1.1-0.47269-1.6625-0.89106-1.25-0.92971s-0.15-0.97029-1.25-2.0703c-1.6817-1.6817-2-3.3333-2-10.378 0-9.4314-0.96699-11.147-5.6544-10.031-5.5713 1.3262-6.3651 2.8766-5.6719 11.078 0.44464 5.2601 0.24406 8.1158-0.693 9.8667-1.2374 2.312-1.8261 2.4641-9.539 2.4641-11.443 0-12.421-0.90947-12.555-11.677-0.0822-6.6054-0.47288-8.575-2.0334-10.25-2.3543-2.527-3.1157-2.5759-5.0345-0.32338-1.1871 1.3936-1.3992 3.9395-1.0416 12.5l0.44914 10.75 5.1366 0.0989c2.8251 0.0544 7.6116 0.44103 10.637 0.8592 8.2607 1.1419 12.811 1.1561 13.5 0.0419zm44.25-0.3155c2.8875 0.0483 5.25-0.31096 5.25-0.79834s-0.64436-0.88616-1.4319-0.88616-2.3625-1.307-3.5-2.9044c-1.6431-2.3075-2.0681-4.426-2.0681-10.309 0-4.548-0.50833-8.0997-1.3177-9.2065-1.2347-1.6886-1.4236-1.6961-3-0.1197-1.3124 1.3124-1.6823 3.5503-1.6823 10.177 0 8.7997-1.0189 12.363-3.5352 12.363-0.80565 0-1.4648 0.72508-1.4648 1.6113 0 1.3398 0.63186 1.4743 3.75 0.79835 2.0625-0.44712 6.1125-0.77343 9-0.72514zm213.9 0.18147c-1.3233-0.76916-2.159-0.76054-2.95 0.0304-0.80483 0.80483-0.30495 1.0954 1.8464 1.0732 2.5861-0.0267 2.7222-0.16279 1.1036-1.1036zm-319.56-1.417c1.6832-0.87042 3.9023-1.2661 5.0527-0.901 1.8838 0.59791 1.9864 0.37757 1.2565-2.6985-1.0466-4.4103-1.185-8.8745-0.35181-11.35 0.86461-2.5685-0.83079-6.2938-3.2077-7.0482-1.0165-0.32263-1.8482-1.0063-1.8482-1.5192 0-1.5636-2.7455-1.0383-3.393 0.64918-0.33385 0.86998-0.6213 5.2575-0.63879 9.75-0.0445 11.421-0.31477 11.668-12.769 11.668-5.5444 0-10.335 0.41157-10.646 0.91459-0.90552 1.4652 1.2793 1.7989 12.746 1.947 8.0231 0.10364 11.57-0.25943 13.8-1.4126zm360.98-1.1498c0.72024-1.8944 0.68181-4.139-0.12873-7.5177-0.63555-2.6493-0.87287-5.9432-0.52737-7.3198 0.64955-2.588-1.0688-7.1435-2.2512-5.9681-0.36794 0.36575-0.91947 5.0168-1.2256 10.336s-0.9168 10.458-1.357 11.421c-0.65222 1.4261-0.31325 1.75 1.8314 1.75 1.9392 0 2.9019-0.71068 3.6586-2.7008zm-216.58-20.409v-13.297l-2.5-0.69728c-1.375-0.38351-1.825-0.77377-1-0.86726 1.0612-0.12024 0.91492-0.42138-0.5-1.0294-1.7102-0.7349-1.7464-0.86961-0.25-0.92971 0.9625-0.0387 1.75-0.50497 1.75-1.0362 0-1.3434 17.29-1.1836 18.125 0.16752 0.36326 0.58776 0.0413 2.5506-0.71548 4.3618-1.4609 3.4964-1.494 23.872-0.0426 26.221 0.41337 0.66884 1.625 1.2161 2.6926 1.2161s1.9765 0.5625 2.0199 1.25c0.0632 1 0.17982 1 0.58333 0 0.27741-0.6875 1.576-1.25 2.8859-1.25 3.7548 0 4.6006-2.9903 4.3273-15.3-0.24517-11.043-1.1448-14.7-3.616-14.7-1.6449 0-1.627-1.645 0.0248-2.2788 0.93973-0.36061 52.592-0.17249 64.5 0.23491 0.95306 0.0326 1.1204 1.2806 0.64858 4.8373-0.74017 5.5797 0.73159 7.5477 5.2565 7.0289 2.7352-0.31363 2.8055-0.47289 2.6253-5.9495l-0.18513-5.6273 4.6193-0.52067c5.773-0.65069 7.7578-0.0405 6.154 1.892-0.63138 0.76077-1.9663 1.3832-2.9665 1.3832s-2.1721 0.5625-2.6042 1.25c-0.95737 1.5231-1.5642 20.984-0.79513 25.5l0.55343 3.25h13.096l-0.32313-16.25-0.32312-16.25 4.74-0.30521 4.74-0.3052-1.6877 3.5392c-1.4517 3.0442-1.4994 3.891-0.34116 6.0552 1.6204 3.0277 4.9901 3.299 7.434 0.59851 2.407-2.6598 1.679-6.3334-1.4254-7.1918-1.375-0.38022-2.05-0.74306-1.5-0.8063s0.325-0.55121-0.5-1.0844c-1.0181-0.65794 2.0875-0.97429 9.6667-0.98469 8.0106-0.011 11.296-0.3686 11.625-1.2653 0.36666-1 0.72333-1 1.7833 0 0.72875 0.6875 3.1475 1.265 5.375 1.2833l4.05 0.0333-2.25 1.877c-1.4607 1.2186-2.25 2.9831-2.25 5.0301 0 2.9534 0.20524 3.1332 3.2418 2.8397 3.7437-0.36188 4.6946-2.6951 2.653-6.5098-1.7071-3.1897-0.0959-4.2588 6.0225-3.9961 4.4875 0.19266 6.1458 1.8764 2.5116 2.5502-3.7452 0.69434-4.4165 2.1668-4.3356 9.5088 0.0433 3.9235 0.0735 10.268 0.0672 14.1s0.20654 7.3189 0.473 7.75 3.3208 0.7839 6.7874 0.7839h6.3029l0.61705-6.25c1.9477-19.728 1.9825-22.569 0.29735-24.255-0.90096-0.90104-1.6382-2.2811-1.6382-3.0668 0-1.188 3.2-1.4286 19-1.4286 15.574 0 19-0.25121 19-1.393 0-2.5719 4.344-2.4119-69.25-2.5508-24.735-0.0467-29.75-0.29097-29.75-1.4492 0-1.9861 2.2678-2.607 9.5228-2.607 3.4976 0 6.6373-0.45 6.9772-1s1.518-1 2.618-1 1.7219 0.45 1.382 1c-0.38328 0.62016 1.4618 1 4.8576 1 3.2194 0 5.6327-0.47115 5.8568-1.1434 0.27318-0.81956 0.93404-0.84763 2.3333-0.0991 1.0737 0.57435 5.1022 0.86092 8.9522 0.63682s11.01-0.51699 15.911-0.65087c6.0538-0.16537 9.0467-0.64426 9.3333-1.4934 0.24811-0.73502-0.43635-1.25-1.6614-1.25-2.806 0-2.6662-2.6618 0.16667-3.1724 1.2375-0.22306 5.625-0.16302 9.75 0.13342s10.557 0.40548 14.293 0.24232c8.7048-0.38017 9.5088-1.6712 7.9517-12.768-0.58576-4.1744-1.3676-7.8926-1.7374-8.2628-1.1542-1.1552-84.735-1.351-84.022-0.19676 0.37891 0.61308-0.59432 1.0237-2.4263 1.0237-1.6825 0-3.059-0.42203-3.059-0.93785 0-1.0066-0.79989-1.1017-8.4767-1.0076-2.7372 0.0336-5.311 0.59751-5.7195 1.2532-0.5619 0.90187-1.2981 0.83683-3.0233-0.26711-2.8161-1.802-36.814-2.6048-37.871-0.89426-0.42778 0.69216-1.3959 0.5908-2.9061-0.30427-1.7859-1.0584-2.3604-1.0779-2.7174-0.0922-0.54557 1.5065-5.9053 1.675-6.8083 0.21397-0.39624-0.64113-2.2293-0.76111-4.809-0.31476-4.6328 0.80156-21.493 0.78173-115.67-0.13604-44.867-0.43725-64.043-0.31128-63 0.41381 1.1117 0.77255-0.11796 1.0464-4.75 1.0577-3.4375 8e-3 -6.25-0.41135-6.25-0.93282 0-0.94412-69.238-0.51297-73.64 0.45856-3.5044 0.77355-3.4078 2.9434 0.38386 8.6185 4.667 6.9852 7.8021 9.8711 10.724 9.8711 1.3008 0 2.5335 0.50495 2.7392 1.1221 0.48251 1.4475 32.499 2.8544 40.438 1.777 3.1569-0.4284 6.0538-0.58494 6.4374-0.34786s9.5909 0.65408 20.461 0.92666 19.964 0.69662 20.21 0.94231c1.4664 1.4664-1.6528 2.6776-6.5979 2.5621-3.1106-0.0727-14.206-0.12865-24.656-0.12444s-21.348-0.13798-24.218-0.31599c-3.3592-0.20836-5.5944 0.12978-6.2745 0.94917-1.5046 1.813 6.1031 2.2064 45.993 2.3786 18.425 0.0795 53.638 0.3563 78.25 0.61509 28.805 0.30288 44.75 0.12219 44.75-0.50709 0-0.5377 0.47656-0.97763 1.059-0.97763s0.7809 0.45 0.44098 1-0.16803 1 0.38197 1 1.2781-0.45 1.618-1 1.068-1 1.618-1 0.72189 0.45 0.38197 1c-0.38039 0.61549 1.2952 1 4.3576 1 3.0915 0 5.1336-0.47335 5.3926-1.25 0.32124-0.96307 1.3369-1.0047 4.4247-0.18127 2.2043 0.5878 4.8666 0.75744 5.9164 0.37698s15.266-0.52388 31.592-0.31873 31.513 0.37302 33.75 0.37302c4.6747 0 5.5077 2.0218 1.8167 4.4094-1.9685 1.2734-2.938 1.2737-7.75 3e-3 -4.2128-1.1129-6.0026-1.1874-7.6473-0.31838-1.5652 0.82699-19.93 1.005-67.75 0.65662-36.546-0.26665-65.603-0.0957-65.603 0.38556s-1.125 0.86388-2.5 0.86388-2.5-0.45-2.5-1c0-1.3889-13.966-1.2689-19.331 0.16616-2.3981 0.64139-5.217 0.82895-6.2644 0.4168s-6.8542-0.73774-12.904-0.72355c-18.45 0.0433-69.841-0.0696-72.5-0.15925-7.8456-0.26456-12 0.35853-12 1.7998 0 1.3037 4.8738 1.5201 37.25 1.6536 20.488 0.0845 43.775 0.28648 51.75 0.44892s16.638 0.31834 19.25 0.34643c3.434 0.0369 4.75 0.44827 4.75 1.4847 0 0.82053-1.176 1.5689-2.75 1.75-5.9799 0.68806-3.0033 8.4501 3.2058 8.3595 3.9086-0.057 6.7086-4.4489 4.7925-7.5172-2.3228-3.7194-1.5752-4.0259 9.8175-4.0259 6.1552 0 11.981-0.48958 13.127-1.1032 1.5602-0.83499 2.2524-0.7943 2.8467 0.16737 0.45551 0.73704 2.4794 1.2042 4.8196 1.1125 4.7389-0.18569 6.0218 1.1924 3.6008 3.8676-1.2797 1.414-1.4519 2.2605-0.65516 3.2205 0.68719 0.82802 0.74303 1.8364 0.15332 2.7688-1.3989 2.2118-1.1976 20.327 0.24189 21.766s6.2359 1.5722 8.731 0.23693c1.6112-0.86229 1.7776-2.3535 1.5904-14.25-0.11502-7.3078-0.27938-13.624-0.36525-14.037s-1.5061-0.75-3.1561-0.75-3-0.45-3-1 0.3375-1.06 0.75-1.1334c3.4586-0.61501 7.9575-1.0696 14.865-1.5022 6.7691-0.42391 8.2155-0.24745 8.7186 1.0637 0.36644 0.95493 0.0688 1.5719-0.75843 1.5719-1.3145 0-3.0598 2.7127-2.7344 4.25 0.0873 0.4125-0.34002 0.75-0.94965 0.75-0.68081 0-0.86809 0.95748-0.48548 2.482 1.6109 6.4185 1.7133 13.047 0.23193 15.018-2.3219 3.0889-4.185 0.50124-3.9312-5.4601 0.14373-3.3756-0.21745-5.0218-1.1831-5.3924-0.92051-0.35323-1.5492 0.37615-1.8615 2.1596-0.92898 5.3057-0.71683 11.133 0.47478 13.041s1.2374 1.9111 2.8758-0.11224c1.7265-2.1322 3.9871-1.6835 3.9871 0.79136 0 0.77497 1.179 2.0268 2.6201 2.7819 2.1438 1.1232 3.28 1.1461 6.25 0.12554l3.6299-1.2473v-13.297zm-68.75-19.553c0.6875-0.27741 1.8125-0.27741 2.5 0s0.125 0.50439-1.25 0.50439-1.9375-0.22698-1.25-0.50439zm165.43-2.4676c-2.8436-1.0519-3.4159-2.4891-1.6818-4.2232 1.1499-1.1499 3.0172-1.3962 7.7592-1.0233 3.4346 0.2701 6.6331 0.87608 7.1077 1.3466 1.2562 1.2456-0.16998 3.0298-2.4219 3.0298-1.0675 0-1.941 0.36-1.941 0.8 0 1.0008-6.1735 1.0499-8.8222 0.0701zm-163.68-7.8701c-8.8421-0.31579-13.816-0.86842-13.5-1.5 0.31166-0.62332 11.612-1.1028 30-1.2729 16.225-0.15011 32.538-0.54003 36.25-0.8665 4.6573-0.40954 6.75-0.24742 6.75 0.52292 0 0.64926 1.7786 1.1101 4.25 1.1012 3.1125-0.0112 3.8485-0.27478 2.75-0.98469-1.1135-0.71959-0.5185-0.97332 2.309-0.98469 2.288-9e-3 3.5622 0.38402 3.191 0.98469-0.33992 0.55 0.0835 1 0.94098 1s1.559-0.45 1.559-1c0-1.4905 9.7414-1.2537 10.286 0.25 0.36215 1 0.8761 1 2.5698 0 3.023-1.7849 5.1442-1.5444 5.1442 0.58333 0 2.7144-0.79399 3.0707-4.0792 1.8307-2.2893-0.8641-3.4439-0.8184-5.0761 0.2009-1.7088 1.0672-2.2638 1.0751-2.9025 0.0416-0.63154-1.0218-1.1381-0.99023-2.5286 0.15783-1.3396 1.1061-1.8354 1.1487-2.1595 0.1857-0.49752-1.4782-5.254-1.7046-5.254-0.25003 0 0.55-0.70156 1-1.559 1s-1.2809-0.45-0.94098-1c0.38091-0.61633-1.323-1-4.441-1s-5.059 0.43656-5.059 1.1417c0 0.83492-3.2914 0.93679-12.25 0.37916-6.7375-0.41938-12.925-0.68957-13.75-0.60041-4.4435 0.48017-20.203 0.51876-32.5 0.0796zm-39.946-0.90228c-1.8027-0.70546-1.7658-0.81003 0.5-1.4161 1.3456-0.35989 7.059-0.6605 12.696-0.66801 8.4505-0.0113 10.25 0.24969 10.25 1.4864s-1.8299 1.488-10.75 1.4297c-5.9125-0.0386-11.626-0.41305-12.696-0.83199zm135.45-0.5983c0-1.8322 1.4352-2.0797 11-1.8963 4.675 0.0896 13.112 0.21558 18.75 0.27992 8.1632 0.0932 10.25 0.40788 10.25 1.5459 0 1.1921-3.3142 1.4228-20 1.3924-15.609-0.0285-20-0.31871-20-1.3219zm41.524 0.53993c-0.39853-0.64483-0.48487-1.4121-0.19187-1.7051 0.45253-0.45252 22.645-0.49407 27.918-0.0523 1.3597 0.11393 2.6504 1.6164 1.5 1.7463-0.1375 0.0155-6.6065 0.28817-14.376 0.60588-10.268 0.41992-14.323 0.25751-14.85-0.59474zm46.476-0.61277c0-1.5117 4.4268-1.8299 20.14-1.4476 4.601 0.11194 7.9062-0.24469 8.309-0.89654 0.95107-1.5389 6.0905-1.3421 7.4408 0.28491 0.86453 1.0417 0.76427 1.6748-0.42104 2.6585-1.1887 0.98651-2.613 1.0493-6.0357 0.26605-2.4907-0.56994-4.718-0.63987-5.0162-0.15748-0.29494 0.47723-5.9094 0.83417-12.477 0.79321-9.639-0.0601-11.94-0.34941-11.94-1.501zm39.784-0.56559c-0.57374-0.35146 1.0401-0.8047 3.5863-1.0072 3.2452-0.2581 4.6294 8e-3 4.6294 0.88841 0 1.2948-6.1508 1.3837-8.2157 0.1188zm-9.1135 46.802c0.54576-0.54575 1.428-14.894 1.4107-22.944-3e-3 -1.53-0.79497-4.1175-1.7593-5.75-1.5263-2.5838-2.3299-2.9682-6.2044-2.9682-2.4481 0-4.1581 0.29301-3.7999 0.65112s-0.12938 1.2228-1.0833 1.9215c-1.5115 1.107-1.7179 3.0311-1.6056 14.965 0.0976 10.37 0.46166 13.92 1.5 14.623 1.4373 0.97294 10.46 0.58382 11.542-0.49776zm59.231-1.8118c0.60381-1.7321 1.0978-8.2892 1.0978-14.571 0-13.108-0.57329-14.279-6.9876-14.279-2.499 0-3.8863-0.39498-3.5124-1 0.93245-1.5087-0.44357-1.1993-2.1195 0.47664-0.98607 0.98607-1.4477 3.3946-1.3894 7.25 0.048 3.1754 0.0546 8.9057 0.0149 12.734s0.20337 8.2159 0.54032 9.75c0.57684 2.6263 0.92366 2.7893 5.9354 2.7893 5.0711 0 5.3746-0.14887 6.4205-3.1492zm-383.18-5.7431c-0.62305-6.5644 0.32884-14.296 1.8209-14.791 1.8458-0.61183 3.3746 5.9867 3.0112 12.996-0.33532 6.4679-0.22836 6.8606 2.111 7.75 1.3553 0.51528 4.8548 0.93688 7.7766 0.93688 6.8854 0 8.0003-1.2989 7.1255-8.301-0.38278-3.0637-0.21526-6.4969 0.39538-8.103 0.7642-2.01 0.7316-3.8816-0.11695-6.7138-1.4328-4.7821-3.6132-5.5388-14.597-5.0654-3.8178 0.16456-4.25 0.43742-4.25 2.6832 0 3.715-1.6789 3.0252-2.434-1-0.73398-3.9125-2.0869-4.3162-6.6156-1.9743l-2.9503 1.5257v12.403c0 14.381 0.78475 16.214 6.142 14.346 3.0837-1.075 3.1082-1.1384 2.5809-6.693zm87.448 6.2373c1.5658-1.417 1.8287-3.2771 1.8287-12.935 0-6.204-0.43886-12.434-0.97525-13.845-0.86702-2.2804-1.529-2.5651-5.9648-2.5651-6.1784 0-7.4858 1.8516-6.8364 9.6826 0.24611 2.9677 0.12558 7.5156-0.26784 10.107-0.73064 4.8118 0.23308 9.0748 2.3568 10.425s7.9817 0.82931 9.8587-0.86933zm37.124-0.44307c0.71321-1.1368 0.52663-2.5521-0.64649-4.9036-2.3839-4.7787-2.145-10.458 0.54544-12.965 1.6666-1.5527 1.915-2.3239 1.0328-3.2062s-1.3156-0.76068-1.8015 0.50551c-1.2271 3.1978-2.5952 1.6354-2.2618-2.5828 0.31541-3.9897 0.16756-4.2694-2.414-4.5664-1.5125-0.17403-2.75-0.73653-2.75-1.25s-0.675-0.93358-1.5-0.93358-1.5 0.39752-1.5 0.88337-0.84984 1.1056-1.8885 1.3772c-1.766 0.46181-1.855 1.3617-1.3718 13.867 0.28421 7.355 0.98101 13.956 1.5484 14.668 1.5042 1.8883 11.702 1.1881 13.007-0.89319zm107.59 1.1883c0.76349-0.4835 1.3412-2.1641 1.2837-3.7347s-0.0351-6.0056 0.0497-9.8556c0.25554-11.601 0.20475-14.407-0.26912-14.872-0.24889-0.24401-3.3775-0.59765-6.9525-0.78587l-6.5-0.34221v28.981l3 0.64096c4.499 0.9612 7.8376 0.94977 9.3882-0.0322zm28.112-4.0903c0.275-2.475 0.34674-9.0675 0.15942-14.65l-0.34059-10.15-4.53-0.67932c-2.4915-0.37363-4.9495-0.25985-5.4622 0.25285s-1.0209 7.0857-1.1294 14.607c-0.2223 15.416-0.0403 15.827 6.8028 15.381 3.9513-0.25774 4.0061-0.31566 4.5-4.7609zm-203.54 1.0651c0.52171-0.84415 0.59798-3.195 0.40764-12.565-0.0335-1.65 0.25847-4.2292 0.64886-5.7315s0.42743-3.8566 0.0823-5.2317c-0.5726-2.2814-1.0763-2.49-5.758-2.3846-8.0645 0.18169-8.8406 1.3667-8.8406 13.499 0 12.174 0.70541 13.349 8.0124 13.349 2.6783 0 5.1296-0.42072 5.4474-0.93493zm151.14-15.794c-0.33229-0.33229-0.56864 0.25834-0.52522 1.3125 0.048 1.165 0.28494 1.4019 0.60416 0.60417 0.28887-0.72188 0.25335-1.5844-0.0789-1.9167zm-137.78-2.141c0.79637-0.50491 1.195-2.1928 1-4.2347-0.28534-2.9884-0.69896-3.4316-3.4522-3.6994-2.614-0.25426-3.23 0.1024-3.7491 2.1705-1.0042 4.0009 0.1 5.6411 4.3771 6.5024 0.275 0.0554 1.0959-0.27711 1.8242-0.73887zm-38.824-1.1298c0-0.55 1.0699-1 2.3776-1s2.9494-0.68907 3.6484-1.5313c1.0508-1.2661 0.94214-1.78-0.62756-2.9682-2.2114-1.6739-6.9953-1.9617-7.9135-0.47615-0.84826 1.3725 0.43253 6.9756 1.5945 6.9756 0.50629 0 0.92054-0.45 0.92054-1zm156-2.0714c0-1.6893-0.69205-3.7635-1.5379-4.6093-1.3839-1.3838-1.7282-1.3185-3.4375 0.65242-2.7262 3.1434-0.96338 6.9764 3.2254 7.013 1.2902 0.0113 1.75-0.79178 1.75-3.0561zm28.697-0.1156c0.2408-1.8271-0.3742-3.3656-1.9216-4.8074l-2.2758-2.1204-0.65032 2.3074c-0.35768 1.2691-0.69518 3.5748-0.75 5.1238-0.0879 2.4843 0.2154 2.7791 2.572 2.5 2.0426-0.24192 2.755-0.9491 3.0258-3.0034zm26.713 1.9195c0.69716-0.69716 1.5072-2.5214 1.8002-4.0538 0.49919-2.6114 0.3367-2.7672-2.589-2.4824-2.5706 0.25015-3.1775 0.78924-3.438 3.0538-0.17932 1.5584 0.17122 2.75 0.80901 2.75 0.619 0 0.84733 0.45 0.50741 1-0.89207 1.4434 1.4112 1.2317 2.9104-0.26756zm124.09-1.7324c0.75799-2.3882-0.22851-6-1.6388-6-2.703 0-5.0773 5.4505-3.1945 7.3333 1.3778 1.3778 4.2219 0.59318 4.8333-1.3333zm-230.97-1.1007c0.85399-2.6907-0.74061-4.2853-3.4313-3.4313-1.3758 0.43666-2.1007 1.5061-2.1007 3.0993 0 1.9102 0.52246 2.4326 2.4326 2.4326 1.5932 0 2.6627-0.72486 3.0993-2.1007zm23.968-0.89934c0-0.80994-0.7875-1.6243-1.75-1.8096-1.2278-0.23646-1.75 0.30348-1.75 1.8096s0.52215 2.0461 1.75 1.8096c0.9625-0.18536 1.75-0.99969 1.75-1.8096zm232.31 0.25c-0.18536-0.9625-0.77469-1.75-1.3096-1.75s-1.1243 0.7875-1.3096 1.75c-0.2108 1.0946 0.27967 1.75 1.3096 1.75s1.5204-0.6554 1.3096-1.75zm-403.81-16.643c0-0.21616-0.675-0.65203-1.5-0.96862s-1.5-0.13972-1.5 0.39301 0.675 0.96862 1.5 0.96862 1.5-0.17686 1.5-0.39301zm8 0.01c0-0.8666-4.968-1.2528-6.1854-0.48086-0.838 0.5314 0.045 0.83921 2.4354 0.84897 2.0625 8e-3 3.75-0.15723 3.75-0.36811zm4.25-0.27886c-0.6875-0.27741-1.8125-0.27741-2.5 0s-0.125 0.50439 1.25 0.50439 1.9375-0.22698 1.25-0.50439zm377.86-1.3941c-1.3142-1.0944-3.1142-1.7709-4-1.5033s-3.7481 0.58712-6.3606 0.71002c-3.1417 0.14779-4.75 0.66806-4.75 1.5366 0 0.98667 2.1754 1.3049 8.75 1.2799l8.75-0.0333-2.3894-1.9899zm10.64 0.80642c-0.63719-1.9137-3.4621-2.0654-5.9544-0.31974-2.1848 1.5303-2.1328 1.5697 2.0647 1.5697 3 0 4.1796-0.3791 3.8896-1.25zm-199.5-34.145c0.49165-0.72469 1.0084-0.76102 1.5-0.10549 0.48884 0.65178 34.815 1.0856 98.576 1.2457 84.201 0.21152 98.027 0.0445 99.271-1.1994 1.8839-1.8839 2.2856-23.779 0.47621-25.959-0.65332-0.7872-2.8494-1.6966-4.8803-2.021-6.4357-1.0278-126.15-1.5315-128.76-0.54177-1.5479 0.58851-2.4345 0.57043-2.4345-0.0496 0-1.4228-11.374-1.2013-12.825 0.24971-0.88873 0.88873-1.6984 0.93342-2.95 0.16281-2.3764-1.4632-10.225-1.6323-11.884-0.25603-0.83368 0.69189-3.0022 0.88522-5.6008 0.4993-2.3322-0.34635-16.278-0.61748-30.99-0.60251s-26.75-0.34729-26.75-0.80502c0-1.0096-6.7836-0.8138-9.323 0.2691-1.0026 0.42757-20.485 0.56682-43.294 0.30945s-41.703-0.0931-41.986 0.365c-0.72802 1.178-8.1516 1.0386-8.8968-0.16706-0.90649-1.4667-29.5-1.3346-29.5 0.13631 0 0.8331-5.8039 0.9665-21.75 0.49992-11.962-0.35001-27.488-0.72819-34.5-0.84038s-12.75-0.56216-12.75-0.99992c0-1.0497-9.7351-1.0336-10.384 0.0172-0.2764 0.44722-7.98 0.85198-17.119 0.89948-14.393 0.0748-16.877 0.32236-18.565 1.8497-2.9081 2.6318-4.0962 8.0047-3.7454 16.938 0.31056 7.9077 0.34611 8.0037 3.0811 8.3181 1.5218 0.17493 2.5078 0.73743 2.191 1.25s0.91309 0.92505 2.733 0.91663c2.5044-0.0116 2.9443-0.25109 1.809-0.98474-1.896-1.2253 2.4618-1.2272 64-0.0289 26.675 0.51946 81.342 1.2181 121.48 1.5525s73.121 0.74613 73.289 0.91492c0.7462 0.7462 9.8032-0.83826 10.478-1.8331zm3.1425-33.672c30.69 0.13218 38.513-0.0957 38.932-1.1339 0.42576-1.0564 0.69884-1.05 1.4608 0.0347 0.73055 1.04 5.7613 1.3457 22.826 1.3868 12.039 0.029 26.052-0.23774 31.139-0.59278 5.98-0.41732 9.25-0.28892 9.25 0.36322 0 1.414 4.604 1.2586 7.1442-0.24126 1.6937-1 2.2076-1 2.5698 0 0.24897 0.6875 1.5667 1.25 2.9284 1.25 1.3958 0 2.2061-0.43619 1.8576-1-0.3912-0.63298 2.1563-1 6.941-1 4.9224 0 7.559 0.39151 7.559 1.1224 0 0.77614 0.38566 0.80726 1.25 0.10086 0.7678-0.6275 9.9296-1.0252 23.75-1.0309 31.314-0.013 35.795-0.23995 37.158-1.8823 3.064-3.6918 0.92139-3.8093-69.958-3.8351-37.785-0.0138-69.231-0.35859-69.881-0.76631s-1.461-0.28809-1.8034 0.26585c-0.4135 0.66906-23.432 0.8213-68.569 0.45352-47.655-0.3883-67.947-0.23625-67.947 0.50915 0 0.58454-0.675 1.0628-1.5 1.0628s-1.5-0.45-1.5-1-0.9-1-2-1-2 0.45-2 1c0 1.2634-3.6853 1.3182-4.459 0.0663-0.34283-0.5547-7.7741-0.71446-18.309-0.39362-17.712 0.53943-60.654 0.49101-113.99-0.12853-15.881-0.18448-28.499 0.0624-28.809 0.56378-0.7535 1.2192-4.7984 1.1269-6.0636-0.13834-1.0961-1.0961-21.696-1.5041-23.38-0.46309-0.54417 0.33632-0.9894 1.4849-0.9894 2.5525 0 1.8283 0.80771 1.941 13.917 1.941 10.242 0 14.028-0.33003 14.337-1.25 0.3327-0.98851 0.75084-0.97756 1.9989 0.0524 1.0663 0.87994 4.4437 1.2562 10.413 1.1599 4.8589-0.0784 11.872 0.18522 15.584 0.58573 4.8059 0.51847 6.75 0.40041 6.75-0.4099 0-1.3976 7.6317-1.5431 8.4854-0.16175 0.33188 0.53699 3.1709 0.97928 6.309 0.98287s10.832 0.20531 17.097 0.44826 13.867 0.0388 16.893-0.45367 5.9894-0.59394 6.5856-0.22548c1.8788 1.1612 8.4316 1.4026 9.0914 0.33499 0.41972-0.67912 1.2794-0.61798 2.5605 0.18213 1.5082 0.94188 2.1957 0.93741 3.1536-0.0205 1.5076-1.5076 12.825-1.6628 12.825-0.17588 0 0.72217 8.7593 0.85277 28.109 0.41911 20.034-0.44899 27.917-0.31945 27.441 0.45092-0.36741 0.59449-0.19147 1.0809 0.39099 1.0809s1.059-0.45 1.059-1c0-1.6654 35.072-1.2936 39.135 0.41487 2.3443 0.98574 3.7416 1.1022 4.6071 0.38394 0.81334-0.67494 14.505-0.9738 39.65-0.86551zm-20.393-11.433c0-0.825-0.675-1.5-1.5-1.5s-1.5 0.675-1.5 1.5 0.675 1.5 1.5 1.5 1.5-0.675 1.5-1.5zm-141.25-5.1732c7.4254-0.45504 10.25-0.31104 10.25 0.52253 0 1.5577 3.7258 1.4707 4.2532-0.0993 0.3244-0.96574 5.6306-1.1672 23.333-0.88615 42.436 0.67386 164.33 0.3891 274.29-0.6408 4.6945-0.044 9.1843 0.42423 10.21 1.0647 1.3819 0.86299 2.6542 0.84527 5.1917-0.0723 1.9192-0.69399 8.479-1.222 15.29-1.2307 6.561-8e-3 12.412-0.34593 13.002-0.75 2.2081-1.512 2.3546-4.377 0.40958-8.0061-1.0904-2.0344-1.9825-4.22-1.9825-4.8568 0-1.7512-2.5073-2.3718-9.5818-2.3718-3.6121 0-6.4182-0.43721-6.4182-1 0-0.55-1.125-1-2.5-1s-2.5 0.48465-2.5 1.077c0 0.75722-13.435 1.0011-45.25 0.82146-24.888-0.14055-48.288 0.11488-52 0.56761-3.9165 0.4776-6.7508 0.44761-6.752-0.0715-3e-3 -1.422-6.2596-1.5262-8.9116-0.14846-1.9297 1.0025-2.4978 1.0032-2.8333 4e-3 -0.56267-1.6758-17.365-1.7378-19.033-0.0702-0.9064 0.90638-1.7059 0.90404-3.45-0.0101-2.4972-1.3089-3.7709-1.3707-14.77-0.71624-4.125 0.24543-20.596 0.44808-36.602 0.45034-20.585 3e-3 -29.877 0.35719-31.75 1.2106-2.0098 0.91574-3.2536 0.93073-5.1598 0.0622-2.8404-1.2942-63.867-1.7638-73.894-0.56865-4.3606 0.51978-5.7185 0.40154-5.191-0.45201 0.49025-0.79323-0.42084-1.1559-2.9036-1.1559-2.309 0-3.3794 0.38607-2.9585 1.0671 0.46188 0.74732-4.5397 0.92373-16.691 0.5887-9.5428-0.26311-26.463-0.48466-37.6-0.49234-13.764-0.01-20.25-0.35823-20.25-1.0887 0-0.59111-0.675-1.0747-1.5-1.0747s-1.5 0.51505-1.5 1.1446c0 1.5105-68.835 0.42015-70.37-1.1147-1.3749-1.3749-11.331-1.3226-12.188 0.06402-0.41282 0.66795-2.2853 0.86874-4.809 0.5157-2.2731-0.318-4.808-0.58844-5.633-0.60098-10.534-0.16021-11.682 0.26726-10.523 3.9195 0.41226 1.2989 1.9424 2.136 4.7818 2.6157 4.3726 0.73875 10.28 3.9953 14.005 7.7206 1.7234 1.7234 3.6539 2.2787 8.966 2.5788 3.7233 0.21039 6.7697 0.73252 6.7697 1.1603s2.925 0.82165 6.5 0.87528c3.6804 0.0552 6.5-0.33112 6.5-0.89061 0-1.4228 13.738-1.2728 14.214 0.15526 0.28595 0.85787 0.91465 0.85787 2.5176 0 2.7324-1.4623 6.545-1.4663 8.003-8e-3 0.84569 0.84569 2.2797 0.84683 5.625 4e-3 2.7251-0.6862 5.4038-0.79161 6.8149-0.26818 1.2788 0.47432 9.3 0.66454 17.825 0.42271 11.065-0.31389 15.071-0.13712 14 0.6178-1.1349 0.8001-0.22214 1.0612 3.75 1.0728 2.8875 8e-3 5.25-0.43474 5.25-0.98474 0-1.2609 10.268-1.3243 11.55-0.0713 1.1268 1.1016 7.1172 1.9494 9.95 1.4083 1.1-0.21012 6.6125-0.6647 12.25-1.0102zm347.5-18.989c-0.6875-0.27741-1.8125-0.27741-2.5 0s-0.125 0.50438 1.25 0.50438 1.9375-0.22697 1.25-0.50438zm-396.25-4.8377c0-1-1-1.5-3-1.5-1.65 0-3 0.4187-3 0.93045 0 0.80021 0.9636 1.1551 5.25 1.9334 0.4125 0.0749 0.75-0.53882 0.75-1.3638zm32.14 0.5c2.6732 0 4.8604-0.46419 4.8604-1.0315 0-0.58684-2.0477-0.96118-4.75-0.86833-2.6125 0.08976-6.9051 0.04653-9.5391-0.09608-5.1542-0.27905-6.3298 0.18562-5.1792 2.0473 0.48672 0.78753 2.2424 0.97736 5.2397 0.56653 2.4792-0.33981 6.6949-0.61785 9.3682-0.61785zm-42.14-0.875c0-1.2156-5.1635-2.125-12.066-2.125-5.4386 0-7.7328 0.86785-6.2402 2.3605 0.98183 0.98183 18.306 0.75894 18.306-0.23552zm20 0.48199c0-0.21616-0.675-0.65203-1.5-0.96862s-1.5-0.13973-1.5 0.39301 0.675 0.96862 1.5 0.96862 1.5-0.17686 1.5-0.39301zm163.5-0.70786c2.2228-0.13199 0.22347-0.52629-4.5-0.88747-8.8008-0.67296-18-0.20975-18 0.90635 0 0.58144 12.568 0.5709 22.5-0.01888zm18.5 0.22868c0-1.1656-6.9241-2.222-9.7388-1.4859-1.2313 0.32202-1.9923 0.98433-1.691 1.4718 0.70964 1.1482 11.43 1.1615 11.43 0.01412zm21.5-0.12781c-0.33992-0.55-2.3915-1-4.559-1s-3.941 0.45-3.941 1 2.0516 1 4.559 1c2.7847 0 4.3185-0.38919 3.941-1zm15 0c0.731-1.1828-0.24752-1.1828-3 0-1.9282 0.82859-1.9214 0.86195 0.19098 0.92971 1.205 0.03866 2.4691-0.37972 2.809-0.92971zm25.373-0.5394c0.25333-0.25333-5.0144-0.4606-11.706-0.4606-8.3626 0-12.167 0.35258-12.167 1.1276 0 0.81062 3.291 0.94011 11.706 0.4606 6.4383-0.36688 11.913-0.87431 12.167-1.1276zm34.125 0.2894c1e-3 -0.4125-1.5996-0.75-3.557-0.75-2.0119 0-3.3019 0.41609-2.9674 0.95719 0.6823 1.104 6.5215 0.91856 6.5245-0.20719zm50.42 0.64301c0.86999-0.33384 1.5818-1.0088 1.5818-1.5 0-1.231-3.7362-1.1289-4.5101 0.1233-0.34546 0.55897-1.047 0.75741-1.559 0.44098s-0.9309-0.09877-0.9309 0.48369c0 1.1624 2.93 1.4068 5.4182 0.45203zm21.582-0.95203c0-0.24254-0.70156-0.44098-1.559-0.44098s-1.2764 0.45734-0.9309 1.0163c0.57081 0.92358 2.4899 0.48015 2.4899-0.57533zm-424.5-0.39529c3.3716-1.2577-5.2434-1.8766-28.246-2.029-19.311-0.128-22.657 0.24308-20.614 2.2864 0.89198 0.89198 46.422 0.6522 48.86-0.25732zm18.504-0.0457c0-0.55-0.87344-1-1.941-1s-2.2191 0.45-2.559 1c-0.35052 0.56716 0.48962 1 1.941 1 1.4075 0 2.559-0.45 2.559-1zm11.5 0c-0.33992-0.55-2.3649-1-4.5-1s-4.1601 0.45-4.5 1c-0.38127 0.61691 1.3426 1 4.5 1s4.8813-0.38309 4.5-1zm96.688 0.31689c-0.72188-0.28887-1.5844-0.25334-1.9167 0.07895s0.25834 0.56864 1.3125 0.52522c1.165-0.04798 1.4019-0.28494 0.60417-0.60417zm82.109-0.42051c-0.79095-0.79095-1.6267-0.79956-2.95-0.03041-1.6186 0.94083-1.4825 1.077 1.1036 1.1036 2.1513 0.02218 2.6512-0.26838 1.8464-1.0732zm119.89 0.42051c-0.72188-0.28887-1.5844-0.25334-1.9167 0.07895s0.25834 0.56864 1.3125 0.52522c1.165-0.04798 1.4019-0.28494 0.60417-0.60417zm5.5435-0.0099c-0.97297-0.25354-2.323-0.23687-3 0.03705s0.11903 0.48137 1.769 0.46099 2.2039-0.2445 1.231-0.49804zm42.769-0.30699c0.78218-1.2656-0.54163-1.2656-2.5 0-1.2927 0.8354-1.2663 0.97149 0.19098 0.98469 0.93004 0.0084 1.9691-0.43469 2.309-0.98469zm-361.15-8.5255c-0.39551-1.0307-0.96281-1.2123-1.7489-0.55988-0.63994 0.53111-3.6249 1.1344-6.6332 1.3405-5.0286 0.34466-4.8875 0.38982 1.7489 0.55988 6.1056 0.15646 7.1284-0.05023 6.6332-1.3405zm-22.164-6.1576c-0.72188-0.28887-1.5844-0.25334-1.9167 0.07895s0.25833 0.56864 1.3125 0.52522c1.1649-0.04798 1.4019-0.28494 0.60417-0.60417zm132.22 877.43c0.36462-2.8875 0.5705-6.6 0.45752-8.25-0.43436-6.3433-0.0784-17.538 0.67371-21.186l0.78614-3.8136 0.75454 4c0.41499 2.2 0.81948 9.175 0.89886 15.5 0.0794 6.325 0.27468 12.625 0.43401 14 0.41478 3.5796-0.33729 5-2.6475 5-1.8546 0-1.9659-0.43037-1.3573-5.25zm7.3395 4c-0.67643-1.8144-0.16855-15.857 0.66877-18.491 0.39181-1.2326 0.37043-2.7943-0.0475-3.4706-0.77054-1.2468-0.55937-20.925 0.23311-21.722 0.23705-0.23834 0.93202 0.0677 1.5444 0.68003 0.67649 0.67649 1.2005 6.1439 1.3355 13.933 0.12216 7.051 0.34039 15.52 0.48497 18.82 0.22617 5.1624 0.35333 5.5114 0.91087 2.5 0.35641-1.925 0.50187-14.075 0.32326-27s-0.26729-24.288-0.19707-25.25c0.22869-3.1345 0.1055-10.96-0.42684-27.117-0.34527-10.479-0.15412-16.556 0.56293-17.895 0.8309-1.5526 0.64848-3.3266-0.77728-7.5587l-1.863-5.53-0.52562 4.4254c-0.28909 2.434-0.21473 5.6394 0.16525 7.1233 0.8158 3.1857-1.644 6.2572-2.7348 3.4147-0.34035-0.88694-0.33791-2.3447 5e-3 -3.2394s0.17151-2.1723-0.38183-2.839c-0.63974-0.77084-0.71882-4.1838-0.21716-9.3732 0.46597-4.8202 0.4103-8.5395-0.13599-9.0858-1.1004-1.1004 0.0299-9.775 1.3825-10.611 0.97534-0.60279 1.4214 1.5588 1.0393 5.0357-0.3954 3.5972 1.1383 15.049 1.7796 13.289 0.51843-1.4234 0.5925-10.742 0.19902-25.039-0.0416-1.5125-0.54542-2.75-1.1195-2.75s-0.97079 0.5625-0.88151 1.25 0.0774 2.15-0.0264 3.25c-0.18877 2-0.18877 2-1.0482 0-0.47269-1.1-0.89106-3.2375-0.92971-4.75-0.0532-2.0796 0.40288-2.75 1.8707-2.75 2.4457 0 3.369-1.448 2.5562-4.009-0.73854-2.3281-2.4968-2.6738-2.4968-0.49105 0 0.825-0.4813 1.5-1.0696 1.5s-0.91507-1.0125-0.72626-2.25 0.89511-2.1375 1.5696-2 1.2263-0.63588 1.2263-1.7186c0-1.339-0.47971-1.7845-1.5-1.393-0.86154 0.33061-1.5444-2e-3 -1.6042-0.78138-0.27722-3.6084 0.23135-33.317 0.57624-33.662 0.21722-0.21722 0.8992-0.0833 1.5155 0.2976 0.78044 0.48234 0.97214 5.0037 0.63159 14.896-0.27119 7.8775-0.0794 14.851 0.43066 15.658 0.6801 1.0751 0.92718 0.67236 0.9486-1.5462 0.0425-4.4044 1.0639-7.5 2.4745-7.5 0.82201 0 1.5061 2.7792 2.0308 8.25 0.74363 7.7534 0.8091 9.2245 0.63421 14.25-0.17159 4.9306-0.55205 36.781-0.52559 44 0.0161 4.4 0.40592 19.7 0.86618 34 0.89966 27.952 0.93342 30.991 0.50546 45.5-0.15412 5.225-0.1611 13.171-0.0155 17.657s-0.0393 8.6488-0.41089 9.25c-1.0786 1.7452-2.5558 1.2721-3.4331-1.0993-0.78832-2.131-0.83-2.117-1.4868 0.5-0.69655 2.7753-3.0653 3.6537-3.8897 1.4425zm17.931 0.59516c-0.37317-0.37317-0.67849-2.4035-0.67849-4.5118 0-2.7407 0.42754-3.8333 1.5-3.8333 0.83333 0 1.5 0.88889 1.5 2 0 2.7625 1.968 2.5321 2.1355-0.25 0.69737-11.578 0.53201-63.837-0.20343-64.292-0.54466-0.33662-0.97472 2.8776-1.0346 7.733-0.37145 30.103-0.9459 51.493-1.4158 52.717-0.3917 1.0208-0.85413 1.1193-1.6267 0.34674-0.74818-0.74818-1.174-24.446-1.3877-77.222l-0.3083-76.143 2.3279-0.88506c2.8642-1.089 3.6794-4.5028 2.9861-12.505-0.82035-9.4696-0.35782-29.948 0.7003-31.007 0.33287-0.33288 0.22172-2.0426-0.247-3.7993s-1.1229-4.9276-1.4537-7.0463c-1.1945-7.6498-1.7145-2.403-1.443 14.559 0.15224 9.5112 0.30658 19.543 0.34297 22.293 0.0785 5.9343-0.99629 10.5-2.4718 10.5-0.71584 0-0.89864-3.7552-0.56169-11.538 0.27475-6.346 0.13034-12.825-0.3209-14.399-0.46131-1.6085-0.42485-3.2563 0.0833-3.7644 0.5383-0.5383 0.47593-3.2179-0.15425-6.6269-0.78936-4.27-0.75056-6.5733 0.15278-9.0715 0.67385-1.8635 0.868-4.1802 0.43782-5.2243-0.42511-1.0318-0.67394-4.576-0.55294-7.876s0.28643-8.25 0.36761-11c0.16728-5.6664 1.984-7.6966 2.461-2.75 0.37132 3.8511 0.77587 3.9779 3.1903 1 1.0033-1.2375 2.1087-1.9668 2.4564-1.6206 1.0061 1.0017 1.7131 23.646 0.75675 24.237-0.91979 0.56846-0.91556 10.672 5e-3 12.216 0.73541 1.2332 0.91013 62.179 0.18827 65.668-0.7092 3.4274-1.9947 3.5413-2.8208 0.25-0.34511-1.375-1.0689-2.5-1.6084-2.5-1.3947 0-1.2229 12.358 0.19141 13.772 0.89647 0.89647 0.72756 1.9983-0.71781 4.6822-1.297 2.4084-1.5669 3.8331-0.86002 4.54 1.0349 1.0349 0.94668 25.226-0.10849 29.755-0.30583 1.3128-0.0545 2.25 0.60332 2.25 0.7193 0 0.88752 0.95598 0.46467 2.6407-0.79157 3.1539 0.35401 13.534 1.4209 12.875 0.41101-0.25402 0.73094-13.295 0.71095-28.98s0.26751-28.822 0.63889-29.193c1.6883-1.6883 2.0878 2.1866 2.4162 23.436 0.19318 12.497 0.78456 26.322 1.3142 30.722s0.72411 9.8 0.4322 12-0.77912 8.275-1.0827 13.5-0.58136 9.95-0.61729 10.5 0.2461 9.55 0.62672 20 0.33066 19.498-0.11104 20.106c-0.97231 1.3388-7.6737 2.6903-8.6246 1.7394zm3.5715-154.19c0.26577-1.0163-0.0871-2.9135-0.78408-4.2159-1.213-2.2666-1.2529-2.2195-0.93044 1.0979 0.18528 1.9062 0.3656 3.8034 0.40071 4.2159 0.11643 1.3679 0.82351 0.77703 1.3138-1.0979zm-0.2806-75.652c0-0.55-0.43621-0.325-0.96937 0.5s-0.96937 1.95-0.96937 2.5 0.43621 0.325 0.96937-0.5 0.96937-1.95 0.96937-2.5zm-27.053 184.81c-0.0458-0.44496-0.23743-1.934-0.42577-3.309s-0.56216-8.4395-0.83072-15.699c-0.39216-10.601-0.20994-13.43 0.92577-14.372 1.1887-0.98655 1.4426-0.23781 1.5933 4.6989 0.45526 14.914 0.25281 28.603-0.42926 29.026-0.4125 0.2556-0.7875 0.10067-0.83333-0.34429zm6.3453-7.2798c-0.091-3.2839 0.26281-6.2355 0.78629-6.559 0.53421-0.33016 0.98742 1.0829 1.033 3.2208 0.0447 2.095 0.17204 5.0465 0.28302 6.559s-0.27941 2.75-0.86753 2.75c-0.6212 0-1.1387-2.5021-1.2348-5.9708zm-0.26193-10.588c0-0.85746 0.45-1.2809 1-0.94098s1 1.0415 1 1.559-0.45 0.94098-1 0.94098-1-0.70156-1-1.559zm-0.15622-4.191c-0.0859-0.9625-0.29928-3.1-0.47412-4.75s-0.24577-5.25-0.15763-8 0.17774-8.7125 0.19912-13.25c0.0267-5.6675 0.4096-8.25 1.2232-8.25 0.86549 0 1.1872 4.5675 1.1948 16.966 6e-3 9.3312 0.29814 17.431 0.64968 18s-0.0624 1.0342-0.91985 1.0342-1.6293-0.7875-1.7152-1.75zm-7.3335-18.203c-0.35884-1.6338-0.18415-3.7752 0.38822-4.7587 1.1226-1.9289 1.2098-1.7125 1.6094 3.9946 0.26876 3.8386-1.199 4.4-1.9976 0.76408zm-0.49666-12.297c0.0156-6.0108 0.82214-9.75 2.103-9.75 0.48585 0 0.88337 3.375 0.88337 7.5 0 6-0.3 7.5-1.5 7.5-1.1446 0-1.4968-1.2439-1.4864-5.25zm30.986-38.25c0-0.825 0.45-1.5 1-1.5s1 0.675 1 1.5-0.45 1.5-1 1.5-1-0.675-1-1.5zm-31-27.059c0-0.85746 0.45-1.2809 1-0.94098s1 1.0415 1 1.559-0.45 0.94098-1 0.94098-1-0.70156-1-1.559zm-0.41874-9.495c-0.71266-7.4106-0.38869-10.177 1.2561-10.725 0.71718-0.23906 1.1998 0.88959 1.2595 2.9458 0.34458 11.854-1.558 17.738-2.5156 7.7793zm0.24046-22.113c-0.0981-4.5833-0.10623-9.2333-0.0182-10.333s0.25747-3.4625 0.37647-5.25c0.31788-4.775 1.8159-3.9628 1.8443 1 0.0134 2.3375 0.12589 8.2622 0.25 13.166 0.16224 6.4103-0.12564 9.0334-1.0243 9.3333-0.92442 0.30856-1.2964-1.7533-1.4283-7.9161zm12.7 6.2348c-0.35645-1.1231-0.34016-4.0954 0.0362-6.6051 0.52259-3.4849 1.0692-4.4848 2.3132-4.2316 1.5707 0.31958 1.7865 3.2748 0.74597 10.214-0.40521 2.7025-2.3134 3.0861-3.0954 0.62234zm-5.5216-10.509c0-0.24254 0.45-0.7191 1-1.059s1-0.14148 1 0.44098-0.45 1.059-1 1.059-1-0.19844-1-0.44098zm4.9036-4.7392c-1.0799-2.0178-1.2599-2.0529-2.4169-0.47061-1.1331 1.5496-1.308 1.5588-1.8684 0.0984-0.34005-0.88612-0.61827-6.6593-0.61827-12.829 0-6.987-0.425-11.643-1.1268-12.345-0.7248-0.7248-0.83302-2.134-0.30336-3.95 1.1299-3.8741 1.1838-4.2456 1.3148-9.0732 0.0745-2.7465 0.57221-4.25 1.4068-4.25 1.0037 0 1.258 3.2866 1.1411 14.75-0.0827 8.1125 0.18324 16.775 0.59093 19.25l0.74127 4.5 0.32446-4.5c0.17845-2.475 0.34387-7.2 0.36762-10.5 0.0383-5.319 0.27018-6 2.0432-6 1.7823 0 2.0311 0.76198 2.2859 7 0.46716 11.436 0.439 13.487-0.23447 17.077-0.73901 3.9393-1.9787 4.3615-3.6479 1.2425zm-11.904-14.261c0-0.24254 0.45-0.7191 1-1.059s1-0.14148 1 0.44098-0.45 1.059-1 1.059-1-0.19844-1-0.44098zm-0.34201-9.2344c-0.36189-0.3619-0.65799-3.508-0.65799-6.9913 0-5.6941 0.20451-6.3333 2.0264-6.3333 1.8384 0 2.0042 0.56174 1.7873 6.0541-0.2222 5.6265-1.6077 8.8186-3.1557 7.2706zm13.259-4.0747c-0.0458-0.4125-0.27043-1.875-0.4991-3.25-1.5752-9.4715-1.1762-15 1.0824-15 1.5107 0 2.3033 3.1114 2.038 8-0.10446 1.925-0.26826 5.1875-0.36399 7.25s-0.62405 3.75-1.174 3.75-1.0375-0.3375-1.0833-0.75zm125.08-3.75c0-0.825 0.45-1.5 1-1.5s1 0.675 1 1.5-0.45 1.5-1 1.5-1-0.675-1-1.5zm-126-19.5c0-0.55 0.45-1 1-1s1 0.45 1 1-0.45 1-1 1-1-0.45-1-1zm-0.0318-4.75c-0.03-2.5909-0.11395-2.6415-1.452-0.87457-0.8937 1.1802-2.05 1.6337-3.1191 1.2235-1.5155-0.58155-1.6287-1.8818-1.0484-12.043 0.65629-11.491 1.2143-14.556 2.6498-14.556 1.3419 0 2.0763 4.8291 1.5004 9.8662-0.30304 2.6504-0.1178 5.9023 0.41164 7.2264 0.95593 2.3907 0.96306 2.3918 1.026 0.15741 0.0368-1.3052 0.69328-2.25 1.5635-2.25 1.1589 0 1.4716 1.1942 1.3748 5.25-0.0689 2.8875-0.32429 6.0375-0.56748 7-0.69209 2.7392-2.3039 2.0502-2.3392-1zm-12.284-1.9516c-0.91355-1.4782-0.39624-14.358 0.60145-14.975 1.7677-1.0925 2.674 2.1798 2.2386 8.0823-0.41776 5.6632-1.6907 8.7525-2.84 6.8928zm12.965-11.771c-0.82579-2.152-0.85172-19.836-0.0322-21.971 0.4552-1.1862 0.9551-1.3265 1.9081-0.5356 0.96607 0.80176 1.1615 3.6418 0.77593 11.276-0.53386 10.569-1.4374 14.396-2.6518 11.231zm-13.009-8.7344c-0.66342-4.7488-0.21003-13.557 0.7471-14.514 1.3946-1.3946 1.8893 1.1373 1.8395 9.4148-0.0558 9.2779-1.5824 12.288-2.5866 5.0993zm8.3597-8.2619c0-1.7699 0.41936-2.3077 1.4817-1.9 1.1217 0.43043 1.2346 1.0302 0.46481 2.4686-1.3698 2.5595-1.9465 2.391-1.9465-0.56858zm0-6.5314c0-1.8667 0.26667-2.1333 1.2-1.2s0.93333 1.4667 0 2.4-1.2 0.66667-1.2-1.2zm4.6563-4.2063c-0.31733-1.2135-0.34534-2.438-0.0623-2.721 0.64668-0.64669 2.3702 2.0044 2.3906 3.6774 0.0258 2.1034-1.7153 1.3883-2.3284-0.95633zm-5.0493-1.3755c-0.86489-2.2539-0.72601-4.6815 0.36668-6.4098 1.5706-2.4843 3.0364 0.15464 2.3693 4.2655-0.63795 3.9312-1.7238 4.7822-2.736 2.1444zm6-4c-0.81872-2.1335-0.769-3.9136 0.0855-3.0591 0.76461 0.76462 1.5232 4.6409 0.90827 4.6409-0.2127 0-0.65988-0.7118-0.99372-1.5818zm-5.607-10.918c0-0.825 0.375-1.5 0.83333-1.5s0.83334 0.675 0.83334 1.5-0.375 1.5-0.83334 1.5-0.83333-0.675-0.83333-1.5zm-50.325-101.16c-0.90433-0.90433 1.3368-3.4525 2.438-2.772 1.3787 0.85211 1.0431 3.43-0.44664 3.43-0.73334 0-1.6294-0.2961-1.9913-0.65799zm-81.446-234.53c0.61808-1.8542 2.7708-2.1618 2.7708-0.39583 0 0.87083-0.7125 1.5833-1.5833 1.5833s-1.4052-0.53438-1.1875-1.1875z"/>
</svg>
